<svg xmlns="http://www.w3.org/2000/svg" width="256" height="42.385" viewBox="0 0 256 42.385">
  <g id="logo-haiphongcomputer" transform="translate(-193 614)">
    <path id="Path_6573" data-name="Path 6573" d="M203.469-603.524C197.713-597.769,193-593.034,193-593s1.077.05,2.389.05h2.4l8.13-8.137,8.137-8.13v-2.4a23.778,23.778,0,0,0-.057-2.389C213.966-614,209.231-609.287,203.469-603.524Z" transform="translate(0)" fill="red"/>
    <path id="Path_6574" data-name="Path 6574" d="M494.665-611.611l.014,2.389,8.137,8.137,8.137,8.137h2.353a23.207,23.207,0,0,0,2.36-.057c0-.057-20.923-20.994-20.98-20.994C494.665-614,494.658-612.923,494.665-611.611Z" transform="translate(-280.281)" fill="red"/>
    <path id="Path_6575" data-name="Path 6575" d="M274.474-532.026l-7.974,7.974,7.995,7.995,7.988,7.988,7.988-7.988,7.995-7.995-7.974-7.974C286.1-536.414,282.5-540,282.483-540S278.861-536.414,274.474-532.026Zm2.608,2.991.014,2.856h4.182v.851H277.1v.921h-.851v-7.52l.411.021.4.021Zm10.681-2.778a4.176,4.176,0,0,1,3.069,2.715,2.865,2.865,0,0,1,.177,1.29,2.865,2.865,0,0,1-.177,1.29,4.133,4.133,0,0,1-3.473,2.778l-.411.05v-.844l.5-.085a3.281,3.281,0,0,0,2.7-2.722A3.279,3.279,0,0,0,287.473-531c-.234-.043-1.318-.071-2.417-.071H283.05v5.741H282.2v-6.592h2.537A19.6,19.6,0,0,1,287.763-531.814Zm-2.927,4.479.021,2.75.482.021.475.021v.844h-.992v4.189l-.4-.021-.411-.021-.021-5.266-.014-5.259h.851Zm-1.786,5.373v2.452l-.4-.021-.411-.021-.021-2.431-.014-2.424h.851Zm-5.968.475-.021,1.935-.4.021-.411.021v-3.905h.851Zm-.369,3.211a1.341,1.341,0,0,1,.135.751.589.589,0,0,1-.326.064h-.276v-.319c0-.177-.028-.319-.071-.319a1.794,1.794,0,0,0-.071.744,1.793,1.793,0,0,0,.071.744c.043,0,.071-.113.071-.248,0-.248,0-.248.319-.248h.326l-.05.262c-.064.376-.149.51-.354.588a.756.756,0,0,1-.787-.1c-.191-.163-.2-.2-.22-.907-.021-.843.05-1.049.4-1.162A.89.89,0,0,1,276.713-518.276Zm1.85-.106a1.289,1.289,0,0,1,.135.22,1.921,1.921,0,0,1,.085.928c-.021.673-.028.716-.22.879a.711.711,0,0,1-.822.064c-.269-.135-.291-.213-.291-1.056,0-.631.021-.758.142-.914a.673.673,0,0,1,.744-.177A1.864,1.864,0,0,0,278.563-518.382Zm1.609.149a3.073,3.073,0,0,1,.043.439c0,.333.1.156.142-.255l.035-.369.376-.021.369-.021v2.2h-.5l-.007-.588-.014-.581-.071.581c-.071.574-.071.588-.262.588-.17,0-.2-.036-.241-.269a4.024,4.024,0,0,1-.043-.489.423.423,0,0,0-.071-.269c-.057-.035-.064.121-.028.489l.05.539h-.588v-1.049a6.448,6.448,0,0,1,.05-1.1.91.91,0,0,1,.376-.05C280.108-518.453,280.13-518.439,280.172-518.234Zm2.7-.042a.588.588,0,0,1,.177.5c0,.454-.092.6-.425.645l-.284.05v.829h-.567v-2.2h.461C282.639-518.453,282.724-518.432,282.873-518.276Zm1.311.744a2.648,2.648,0,0,0,.071.921,2.648,2.648,0,0,0,.071-.921v-.921h.567v.957c0,.943-.007.971-.184,1.148-.156.156-.227.177-.5.142-.539-.057-.581-.149-.588-1.219-.007-.51-.007-.943-.007-.978s.135-.05.291-.05h.284Zm2.481-.716c0,.163-.035.213-.156.234-.156.021-.163.05-.184.886l-.021.872h-.56v-.886c0-.836-.007-.886-.142-.886-.113,0-.142-.05-.142-.213v-.213h1.2Zm1.524.042c0,.177-.028.213-.191.234s-.2.064-.2.2.035.17.177.17.177.035.177.213-.028.213-.177.213-.177.028-.177.248.014.248.213.248.213.021.213.213v.213h-.992v-2.2l.482.021.475.021Zm1.616-.17c.22.12.262.2.262.532a.532.532,0,0,1-.113.39c-.1.078-.1.092,0,.149s.113.184.113.553v.5H289.5v-.5c0-.283-.028-.5-.071-.5s-.071.213-.071.5v.5h-.567v-2.2h.432A1.8,1.8,0,0,1,289.8-518.375Z" transform="translate(-68.291 -68.755)" fill="red"/>
    <path id="Path_6576" data-name="Path 6576" d="M429-230.256a1.794,1.794,0,0,0,.071.744,1.794,1.794,0,0,0,.071-.744,1.794,1.794,0,0,0-.071-.744A1.794,1.794,0,0,0,429-230.256Z" transform="translate(-219.273 -355.854)" fill="red"/>
    <path id="Path_6577" data-name="Path 6577" d="M490-229.752c0,.17.035.248.106.248s.106-.078.106-.248-.035-.248-.106-.248S490-229.922,490-229.752Z" transform="translate(-275.949 -356.783)" fill="red"/>
    <path id="Path_6578" data-name="Path 6578" d="M589-229.787c0,.113.035.213.071.213s.071-.1.071-.213-.028-.213-.071-.213S589-229.908,589-229.787Z" transform="translate(-367.933 -356.783)" fill="red"/>
    <path id="Path_6579" data-name="Path 6579" d="M1147.451-442.837c-.432.376-.546.858-.284,1.169.106.128.213.17.468.17.206.007.347-.028.39-.092a.651.651,0,0,0-.05-.638c-.1-.085-.1-.1.014-.184a.584.584,0,0,1,.879.4.663.663,0,0,1-.106.333.52.52,0,0,0-.106.255c0,.071-.028.128-.064.128s-.085.078-.106.177-.078.177-.113.177-.071.057-.071.128a.309.309,0,0,1-.064.191c-.12.142-.156.652-.042.744s.461.035.461-.1a1.914,1.914,0,0,1,.609-.936c.737-.78.822-1.262.319-1.793l-.276-.291h-.836C1147.7-443,1147.614-442.986,1147.451-442.837Z" transform="translate(-886.408 -158.88)" fill="red"/>
    <path id="Path_6580" data-name="Path 6580" d="M1810-442.943a1.08,1.08,0,0,0,.269.312c.142.142.4.411.574.6s.659.723,1.091,1.177c.695.744.808.836,1.021.836s.234-.014.234-.241c0-.135-.028-.269-.071-.291a.22.22,0,0,1-.071-.163,1,1,0,0,0-.106-.326.952.952,0,0,1-.106-.354.558.558,0,0,0-.106-.284.663.663,0,0,1-.106-.333c0-.106-.029-.22-.071-.241a.254.254,0,0,1-.071-.191.921.921,0,0,0-.121-.347l-.12-.206h-1.12A5.87,5.87,0,0,0,1810-442.943Z" transform="translate(-1502.391 -158.88)" fill="red"/>
    <path id="Path_6581" data-name="Path 6581" d="M1078.173-389.99c-.021.071-.078.22-.128.34-.128.3-.262.6-.361.851-.05.113-.177.39-.276.6a2.39,2.39,0,0,0-.184.475,2.591,2.591,0,0,1-.184.461c-.177.354-.248.51-.454,1.014-.149.354-.3.7-.362.829a.614.614,0,0,0-.064.227.314.314,0,0,1-.106.184.34.34,0,0,0-.106.22,1.5,1.5,0,0,1-.177.461,2.13,2.13,0,0,0-.177.39,3.425,3.425,0,0,1-.184.468c-.1.227-.234.525-.3.659s-.135.3-.163.369a.612.612,0,0,0-.064.227.314.314,0,0,1-.106.184.383.383,0,0,0-.106.255c0,.092-.028.17-.071.17s-.071.057-.071.128a.564.564,0,0,1-.106.269.5.5,0,0,0-.106.241,2.023,2.023,0,0,1-.17.461c-.184.39-.5,1.07-.574,1.24a4.19,4.19,0,0,1-.39.666c-.177.262-.347.369-.922.546-.3.092-.319.121-.34.362l-.021.269h2.027c2.183,0,2.162.007,2.063-.376-.028-.12-.12-.177-.411-.248a4.273,4.273,0,0,0-.531-.085.49.49,0,0,1-.3-.191.958.958,0,0,1,.014-.943c.036-.1.113-.276.163-.39s.128-.312.177-.425c.121-.291.248-.6.354-.851a2.864,2.864,0,0,1,.149-.319,1.169,1.169,0,0,0,.106-.234c.043-.113.213-.121,2.268-.121h2.226l.078.191c.05.113.113.276.149.376s.113.269.163.39.142.34.213.5.142.347.177.425c.319.765.376,1.283.163,1.467a2.068,2.068,0,0,1-.581.206c-.475.1-.624.255-.489.5.057.12.255.128,2.573.128h2.516v-.546l-.4-.085a3.034,3.034,0,0,1-.553-.163,1.324,1.324,0,0,1-.645-.716c-.028-.064-.071-.12-.106-.12s-.064-.057-.064-.135a.341.341,0,0,0-.106-.22.313.313,0,0,1-.106-.184c0-.1-.021-.156-.234-.581a1.289,1.289,0,0,1-.12-.333,1.581,1.581,0,0,0-.177-.432,1.651,1.651,0,0,1-.177-.418,1.649,1.649,0,0,0-.177-.418,1.5,1.5,0,0,1-.177-.461.341.341,0,0,0-.106-.22.34.34,0,0,1-.106-.22.68.68,0,0,0-.064-.262c-.036-.064-.113-.234-.17-.369s-.191-.432-.291-.659a3.352,3.352,0,0,1-.184-.475.481.481,0,0,0-.071-.2c-.036-.064-.113-.248-.184-.4s-.156-.383-.206-.5-.128-.312-.177-.425-.128-.312-.177-.425-.128-.312-.177-.425a3.616,3.616,0,0,0-.184-.411.94.94,0,0,1-.1-.34c0-.071-.028-.135-.064-.135s-.085-.092-.113-.213a.535.535,0,0,0-.113-.248.308.308,0,0,1-.064-.206.383.383,0,0,0-.106-.255.34.34,0,0,1-.106-.22c0-.135-.021-.191-.241-.61a1.019,1.019,0,0,1-.113-.319C1078.995-390.068,1078.258-390.259,1078.173-389.99Zm-.042,3.409a2,2,0,0,0,.2.475,1.54,1.54,0,0,1,.17.454.34.34,0,0,0,.106.22.383.383,0,0,1,.106.255c0,.092.036.17.071.17s.071.078.071.17a.383.383,0,0,0,.106.255.383.383,0,0,1,.106.255.293.293,0,0,0,.071.206.2.2,0,0,1,.071.17.341.341,0,0,0,.106.22.341.341,0,0,1,.106.22,1.5,1.5,0,0,0,.177.461,1.5,1.5,0,0,1,.177.461c0,.078.035.135.071.135a.067.067,0,0,1,.071.071,10.744,10.744,0,0,1-1.914.071c-1.822,0-1.914-.007-1.914-.135a.34.34,0,0,1,.106-.22.341.341,0,0,0,.106-.22.224.224,0,0,1,.071-.17.2.2,0,0,0,.071-.17.34.34,0,0,1,.106-.22.324.324,0,0,0,.106-.213,2.066,2.066,0,0,1,.184-.51c.106-.206.213-.439.248-.517.2-.489.468-1.113.567-1.325a.614.614,0,0,0,.064-.227.313.313,0,0,1,.106-.184.342.342,0,0,0,.106-.227C1077.932-386.836,1078.1-386.779,1078.13-386.58Z" transform="translate(-816.606 -208.013)" fill="red"/>
    <path id="Path_6582" data-name="Path 6582" d="M1759.017-389.929a.359.359,0,0,1-.241.071.662.662,0,0,0-.333.106.5.5,0,0,1-.248.106,5.311,5.311,0,0,0-1.737,1.042,6.447,6.447,0,0,0-1.233,1.432.072.072,0,0,1-.064.078c-.035,0-.078.057-.106.121a1.163,1.163,0,0,1-.106.234,2.87,2.87,0,0,0-.149.319,4.281,4.281,0,0,1-.184.411,1.058,1.058,0,0,0-.1.4.4.4,0,0,1-.057.241,7.784,7.784,0,0,0-.2,2.218,7.344,7.344,0,0,0,.369,1.985,1.079,1.079,0,0,1,.1.3,1.428,1.428,0,0,0,.227.5,1.3,1.3,0,0,1,.1.227c.028.071.071.128.106.128a.07.07,0,0,1,.064.071,6.331,6.331,0,0,0,1.538,1.7.393.393,0,0,1,.191.135,2.643,2.643,0,0,0,.6.361c.262.128.539.262.616.3a5.088,5.088,0,0,0,1.063.269,10.461,10.461,0,0,0,2.36-.021c.142-.035.34-.085.439-.106a1.923,1.923,0,0,0,.39-.128c.12-.05.333-.149.475-.213a.933.933,0,0,0,.3-.177.223.223,0,0,1,.184-.071c.071,0,.135-.028.135-.057a1.521,1.521,0,0,1,.376-.3,7.357,7.357,0,0,0,1.361-1.375,3.387,3.387,0,0,1,.234-.291.4.4,0,0,0,.085-.2.19.19,0,0,1,.106-.149.208.208,0,0,0,.106-.184c0-.078.036-.142.071-.142s.071-.057.071-.128a.565.565,0,0,1,.106-.269.616.616,0,0,0,.106-.326.336.336,0,0,1,.071-.234c.042-.021.071-.142.071-.255a1.569,1.569,0,0,1,.106-.468,9.805,9.805,0,0,0,.035-2.686,1.412,1.412,0,0,1-.149-.461c-.135-.709-.149-.765-.248-.851a.254.254,0,0,1-.1-.177,1.788,1.788,0,0,0-.184-.432,7.042,7.042,0,0,0-2.523-2.523,1.191,1.191,0,0,1-.3-.191c-.021-.043-.114-.071-.2-.071a.561.561,0,0,1-.291-.106.662.662,0,0,0-.333-.106.358.358,0,0,1-.241-.071,6.665,6.665,0,0,0-1.417-.071A6.664,6.664,0,0,0,1759.017-389.929Zm2.814.985a3.776,3.776,0,0,1,1.261,1.035.975.975,0,0,0,.177.291.857.857,0,0,1,.177.34.644.644,0,0,0,.064.241,1.945,1.945,0,0,1,.291.794.457.457,0,0,0,.071.255,13.65,13.65,0,0,1,.014,5,.474.474,0,0,0-.085.276,1.057,1.057,0,0,1-.1.4c-.057.106-.142.291-.191.411a6.785,6.785,0,0,1-.744,1.077,4.325,4.325,0,0,1-1.1.659.232.232,0,0,0-.163.057,2.106,2.106,0,0,1-.631.156,3.519,3.519,0,0,1-1.715-.142c-.078-.028-.191-.078-.248-.1a4.442,4.442,0,0,1-1.347-1.283.148.148,0,0,0-.05-.12,3.845,3.845,0,0,1-.517-1.141.183.183,0,0,0-.071-.156.505.505,0,0,1-.071-.3,2.091,2.091,0,0,0-.114-.581,14.774,14.774,0,0,1,0-3.792,1.468,1.468,0,0,0,.114-.5.433.433,0,0,1,.071-.276.23.23,0,0,0,.071-.191.81.81,0,0,1,.1-.326c.05-.106.156-.319.227-.475a.914.914,0,0,1,.191-.3.114.114,0,0,0,.05-.1,4.19,4.19,0,0,1,.865-.943,3.8,3.8,0,0,1,1.12-.489c.135-.014.6-.021,1.028-.007A2.493,2.493,0,0,1,1761.831-388.944Z" transform="translate(-1450.593 -208.123)" fill="red"/>
    <path id="Path_6583" data-name="Path 6583" d="M2136.705-390.022a.563.563,0,0,1-.248.071,1,1,0,0,0-.347.106.948.948,0,0,1-.3.106,1.1,1.1,0,0,0-.369.163c-.142.092-.312.191-.369.22a3.609,3.609,0,0,0-.673.432,6.437,6.437,0,0,0-1.963,2.389c-.085.191-.177.34-.213.34s-.057.057-.057.135a.942.942,0,0,1-.106.333,1,1,0,0,0-.106.326.2.2,0,0,1-.064.156,9.257,9.257,0,0,0-.007,3.48,1.145,1.145,0,0,1,.106.319,2.084,2.084,0,0,0,.255.638c.035.057.114.22.184.354a5.989,5.989,0,0,0,1.084,1.418c.56.546.751.709.836.709a.294.294,0,0,1,.149.092,2.031,2.031,0,0,0,.482.291c.227.106.468.227.531.262a.6.6,0,0,0,.206.064,1.079,1.079,0,0,1,.3.1,1.9,1.9,0,0,0,.475.135c.135.021.39.071.567.113a17.626,17.626,0,0,0,3.118,0c.177-.035.432-.085.567-.106a2.282,2.282,0,0,0,.475-.142,1.06,1.06,0,0,1,.326-.1.183.183,0,0,0,.156-.071c.021-.043.135-.071.248-.071s.227-.028.248-.071a1.56,1.56,0,0,1,.4-.227.741.741,0,0,0,.425-.319c.035-.092.064-1.191.064-2.431a16.336,16.336,0,0,1,.071-2.3.2.2,0,0,0,.071-.17c0-.149.347-.34.85-.468.291-.071.319-.1.319-.291v-.206l-2.459-.021-2.467-.014V-384c0,.156.021.284.057.291a5.708,5.708,0,0,1,.858.092.762.762,0,0,1,.539.6c.028.149.071.34.092.439s.05,1.028.064,2.063l.028,1.885-.4.191a2.4,2.4,0,0,1-.5.184.176.176,0,0,0-.135.064,6.165,6.165,0,0,1-2.275.113,4.492,4.492,0,0,1-1.779-.851,6.061,6.061,0,0,1-1.162-1.439,1.909,1.909,0,0,0-.177-.4,1.557,1.557,0,0,1-.177-.454.52.52,0,0,0-.106-.255.727.727,0,0,1-.106-.369.417.417,0,0,0-.064-.269,8.563,8.563,0,0,1-.092-2.984c.05-.312.106-.687.128-.829a.729.729,0,0,1,.142-.347.286.286,0,0,0,.1-.206,4.765,4.765,0,0,1,1.595-2.2,3.976,3.976,0,0,0,.354-.2.872.872,0,0,1,.319-.142,1.221,1.221,0,0,0,.319-.128,7.9,7.9,0,0,1,2.672-.035.656.656,0,0,0,.248.113,1.533,1.533,0,0,1,.376.177c.135.078.3.17.354.2a4.331,4.331,0,0,1,1.014,1.084,10.268,10.268,0,0,1,.645,1.361c.021.085.106.128.234.128.354,0,.4-.071.312-.532a7.515,7.515,0,0,1-.078-1.092,7.551,7.551,0,0,0-.078-1,6.714,6.714,0,0,1-.114-.836l-.035-.517-.3.021c-.27.021-.291.035-.312.255-.036.383-.312.418-1.113.156-.156-.05-.383-.135-.51-.191a1.274,1.274,0,0,0-.4-.092.328.328,0,0,1-.227-.071A17.224,17.224,0,0,0,2136.705-390.022Z" transform="translate(-1801.312 -208.031)" fill="red"/>
    <path id="Path_6584" data-name="Path 6584" d="M2390.608-389.674a1.278,1.278,0,0,1-.383.106,1.772,1.772,0,0,0-.39.113c-.064.028-.3.149-.539.262a6.122,6.122,0,0,0-2.771,2.658c-.028.071-.071.128-.106.128s-.064.05-.064.113a.965.965,0,0,1-.113.333c-.22.418-.241.475-.241.588a1.035,1.035,0,0,1-.1.333,5.507,5.507,0,0,0-.205,1.892,5.609,5.609,0,0,0,.383,2.424.712.712,0,0,1,.064.262.224.224,0,0,0,.071.184,1.194,1.194,0,0,1,.191.3,8.787,8.787,0,0,0,1.092,1.5,5.351,5.351,0,0,0,1.006.794,2.445,2.445,0,0,1,.291.2.333.333,0,0,0,.2.071c.071,0,.127.028.127.071s.057.071.128.071a.565.565,0,0,1,.269.106.741.741,0,0,0,.383.106.579.579,0,0,1,.34.085,10.615,10.615,0,0,0,2.743.064c.2-.035.454-.092.567-.113a4.36,4.36,0,0,0,.829-.326.574.574,0,0,1,.2-.064,7.125,7.125,0,0,0,2.41-2.431c0-.3-.489-.361-.666-.085a6.3,6.3,0,0,1-1.843,1.666c-.064,0-.114.028-.114.071s-.085.071-.191.071a.611.611,0,0,0-.326.12c-.114.106-.291.128-1.347.128s-1.248-.021-1.4-.128a.834.834,0,0,0-.319-.128.93.93,0,0,1-.354-.135c-.114-.078-.319-.191-.439-.255a4.431,4.431,0,0,1-1.233-1.347.992.992,0,0,0-.206-.347.28.28,0,0,1-.071-.206.361.361,0,0,0-.071-.227,4.507,4.507,0,0,1-.3-1.644,10.544,10.544,0,0,1,.283-3.643.357.357,0,0,0,.085-.227,5.09,5.09,0,0,1,.673-1.375,5.018,5.018,0,0,1,1.127-.992,3.16,3.16,0,0,1,2-.4,4.664,4.664,0,0,1,1.169.078.838.838,0,0,0,.276.135,1.648,1.648,0,0,1,.4.22.967.967,0,0,0,.291.17,3.348,3.348,0,0,1,.865.893c0,.057.021.1.057.1.057,0,.106.085.319.546.071.149.177.361.234.468a.94.94,0,0,1,.1.276,1.686,1.686,0,0,0,.12.354c.106.241.149.276.34.255s.212-.035.234-.411a9.878,9.878,0,0,0-.063-1.24c-.043-.468-.106-1.247-.128-1.736l-.042-.886h-.319c-.255,0-.319.028-.34.135-.078.39-.574.539-1.077.319a6.906,6.906,0,0,0-1.028-.369A18.266,18.266,0,0,0,2390.608-389.674Z" transform="translate(-2037.283 -208.385)" fill="red"/>
    <path id="Path_6585" data-name="Path 6585" d="M2564.039-389.929a.367.367,0,0,1-.248.071,1.056,1.056,0,0,0-.4.1c-.106.057-.4.2-.659.326a4.532,4.532,0,0,0-.78.425c-.021.021-.177.149-.354.284a5.6,5.6,0,0,0-1.134,1.169c0,.035-.035.085-.248.34a8.968,8.968,0,0,0-.567,1.148,7.245,7.245,0,0,0-.361,3.494,3.315,3.315,0,0,1,.114.673.479.479,0,0,0,.071.3c.043.021.071.12.071.213a.992.992,0,0,0,.1.369c.057.106.156.319.22.461a.932.932,0,0,0,.177.3.178.178,0,0,1,.071.149.339.339,0,0,0,.092.206c.2.227.262.319.262.376a7.828,7.828,0,0,0,1.8,1.644,1.788,1.788,0,0,1,.326.177,1.128,1.128,0,0,0,.411.177.549.549,0,0,1,.262.1,1.232,1.232,0,0,0,.354.135c.12.021.333.071.475.106a10.458,10.458,0,0,0,2.36.021,5.235,5.235,0,0,0,1.063-.269c.078-.043.347-.177.6-.291a3.352,3.352,0,0,0,.617-.361.566.566,0,0,1,.212-.149,6.832,6.832,0,0,0,1.3-1.34c0-.035.05-.078.106-.106a.171.171,0,0,0,.106-.149c0-.057.021-.106.057-.106.057,0,.106-.085.319-.546.071-.149.177-.361.234-.468a.923.923,0,0,0,.1-.3.519.519,0,0,1,.071-.227,5.41,5.41,0,0,0,.262-2.091,7.708,7.708,0,0,0-.035-1.347,1.348,1.348,0,0,1-.121-.454,1.088,1.088,0,0,0-.113-.418.205.205,0,0,1-.064-.163,1.5,1.5,0,0,0-.177-.461,1.576,1.576,0,0,1-.177-.432.148.148,0,0,0-.05-.12,2.735,2.735,0,0,1-.333-.425,7.471,7.471,0,0,0-1.616-1.63c-.106-.05-.2-.113-.2-.142a6.008,6.008,0,0,0-1.148-.581,1.278,1.278,0,0,0-.4-.113.254.254,0,0,1-.191-.071,6.664,6.664,0,0,0-1.417-.071A6.664,6.664,0,0,0,2564.039-389.929Zm2.126.78a1.918,1.918,0,0,1,.886.3c0,.035.042.057.092.057a3.869,3.869,0,0,1,1.325,1.559.36.36,0,0,0,.106.184.475.475,0,0,1,.106.276.3.3,0,0,0,.071.213c.042.021.071.149.071.276a.542.542,0,0,0,.078.3c.312.312.312,4.458,0,5.032a.8.8,0,0,0-.078.3.719.719,0,0,1-.064.276c-.028.064-.113.248-.191.4a3.935,3.935,0,0,1-1.871,1.829,3.9,3.9,0,0,1-1.864.2,4.425,4.425,0,0,1-.652-.149c-.078-.028-.192-.078-.248-.1a3.709,3.709,0,0,1-1.446-1.4c-.064-.128-.142-.284-.177-.34a1.948,1.948,0,0,1-.248-.624.558.558,0,0,0-.121-.262.548.548,0,0,1-.064-.312.646.646,0,0,0-.064-.326,13.155,13.155,0,0,1-.071-4.111c.042-.156.1-.411.128-.567a3.4,3.4,0,0,1,.149-.5c.05-.12.12-.291.156-.39a2.748,2.748,0,0,1,.135-.284c.035-.057.113-.213.177-.347a4.3,4.3,0,0,1,1.127-1.141c.057,0,.106-.028.106-.057,0-.078.411-.234.78-.3A6.548,6.548,0,0,1,2566.166-389.149Z" transform="translate(-2198.488 -208.123)" fill="red"/>
    <path id="Path_6586" data-name="Path 6586" d="M887.05-387.95c-.085.085-.05.432.043.468.057.021.347.078.652.128.517.092.567.113.758.376l.2.276v4.947c0,4.572-.007,4.968-.121,5.2a1.044,1.044,0,0,1-.843.51c-.149.021-.383.057-.5.078-.213.035-.234.064-.234.276v.241l2.715-.014,2.708-.021.021-.234c.021-.2,0-.227-.142-.227a3.438,3.438,0,0,1-1.3-.39c-.248-.206-.319-.893-.319-3.2v-1.942h5.458v2.3c0,2.41-.021,2.615-.333,2.892a3.512,3.512,0,0,1-1.255.34c-.177,0-.191.021-.17.227l.021.234,2.75.021,2.743.014v-.248c0-.22-.021-.248-.177-.248a3.552,3.552,0,0,1-1.24-.361c-.347-.234-.362-.525-.333-5.557.014-2.537.057-4.728.092-4.869.085-.347.326-.51.879-.617.255-.05.532-.1.61-.12a.249.249,0,0,0,.17-.39c-.071-.128-.184-.135-2.693-.135-1.432,0-2.658.021-2.722.043a.265.265,0,0,0-.113.241c0,.17.035.206.234.248.843.163,1.028.22,1.184.34.347.262.347.3.354,2.708v2.268h-5.458v-1.857c0-1.021.035-2.1.078-2.4.106-.687.241-.829.9-.95.865-.156.808-.128.78-.383l-.021-.227-2.665-.021C888.3-387.993,887.078-387.979,887.05-387.95Z" transform="translate(-644.811 -209.982)" fill="red"/>
    <path id="Path_6587" data-name="Path 6587" d="M1265.207-387.937a.223.223,0,0,0,.035.411,5.256,5.256,0,0,0,.652.149c.588.106.744.213.907.624.106.269.12.737.12,4.947,0,4.118-.014,4.685-.113,5.011-.149.468-.255.588-.581.659-.142.028-.312.064-.369.078s-.241.043-.4.064c-.326.05-.461.234-.3.425.078.085.489.1,2.792.085l2.7-.021v-.213c0-.184-.028-.213-.213-.234a5.54,5.54,0,0,1-1.162-.319c-.092-.05-.184-.128-.2-.191s-.064-.17-.1-.248c-.085-.177-.042-9.838.042-10.135s.291-.432.851-.532c.822-.142.815-.135.815-.354a.265.265,0,0,0-.113-.241C1270.367-388.051,1265.335-388.015,1265.207-387.937Z" transform="translate(-996.099 -209.967)" fill="red"/>
    <path id="Path_6588" data-name="Path 6588" d="M1414.128-387.876a.262.262,0,0,0-.128.206c0,.184.149.248.815.354a2.409,2.409,0,0,1,.666.163,1.56,1.56,0,0,1,.227.39c.128.291.135.581.135,5.139v4.834l-.163.284a.911.911,0,0,1-.765.5c-.95.156-.879.128-.879.354v.213h5.528l.021-.22c.021-.22.007-.227-.283-.262a3.108,3.108,0,0,1-.482-.078c-.1-.021-.255-.057-.347-.078-.553-.106-.659-.6-.695-3.218l-.028-1.935.2.05a19.136,19.136,0,0,0,3.168.035.423.423,0,0,1,.241-.071,3.474,3.474,0,0,0,1.5-.95.837.837,0,0,1,.163-.213,2.319,2.319,0,0,0,.291-.447c.071-.149.156-.326.191-.39a4.562,4.562,0,0,0,.177-1.573,3.7,3.7,0,0,0-.326-1.177,2.135,2.135,0,0,1-.17-.241,4.09,4.09,0,0,0-2.2-1.552c-.113-.021-.34-.071-.5-.113C1420.11-387.975,1414.3-387.975,1414.128-387.876Zm5.316.78a3.48,3.48,0,0,1,.645.227c.3.149.858.716.858.879a.087.087,0,0,0,.071.092c.042,0,.071.071.071.163a.607.607,0,0,0,.106.3,4.951,4.951,0,0,1,0,2.091c-.057.113-.163.312-.227.432a2.772,2.772,0,0,1-.822.858,3.368,3.368,0,0,1-1.488.177,1.58,1.58,0,0,0-.5-.057h-.4l.014-2.559.021-2.559.347-.028a1.293,1.293,0,0,0,.383-.064A2,2,0,0,1,1419.443-387.1Z" transform="translate(-1134.459 -210.028)" fill="red"/>
    <path id="Path_6589" data-name="Path 6589" d="M1561.04-387.95c-.078.028-.135.447-.064.447a9.457,9.457,0,0,1,1.375.3c.376.191.369.106.369,5.451,0,5.1-.007,5.174-.284,5.458a3.386,3.386,0,0,1-1.276.347c-.206,0-.22.014-.2.227l.021.234,2.75.021,2.743.014v-.248c0-.22-.021-.248-.191-.248a3.548,3.548,0,0,1-1.219-.369c-.284-.2-.354-.858-.362-3.161v-2h5.458v2.367a17.907,17.907,0,0,1-.071,2.417.22.22,0,0,0-.071.163.371.371,0,0,1-.128.234,5.014,5.014,0,0,1-1.325.361c-.106.021-.142.078-.142.234v.213h5.528v-.213c0-.191-.028-.22-.283-.262a3.572,3.572,0,0,1-1.155-.326c-.347-.269-.369-.581-.369-5.443,0-3.955.014-4.557.113-4.9a1.233,1.233,0,0,1,.269-.517,1.932,1.932,0,0,1,.681-.206c.624-.106.78-.177.78-.34,0-.291-.071-.3-2.771-.3-1.432,0-2.651.021-2.715.043a.265.265,0,0,0-.113.241c0,.17.035.206.234.248.843.163,1.028.22,1.184.34.347.262.347.3.354,2.708v2.268H1564.7v-1.822c0-2.176.071-2.842.34-3.126a.588.588,0,0,1,.312-.191,2.251,2.251,0,0,0,.425-.071c.17-.035.4-.085.5-.106.177-.035.2-.071.177-.269l-.021-.227-2.658-.014C1562.323-387.986,1561.083-387.972,1561.04-387.95Z" transform="translate(-1270.987 -209.982)" fill="red"/>
    <path id="Path_6590" data-name="Path 6590" d="M1930.18-387.922a.275.275,0,0,0-.028.439,1.412,1.412,0,0,0,.574.149,2.287,2.287,0,0,1,1.687,1.12l.191.262-.021,4.168c-.014,2.289-.035,4.217-.042,4.274s-.028.291-.057.517c-.064.695-.255.836-1.354,1.014-.347.057-.4.113-.34.354l.043.17h2.233c2.176,0,2.233,0,2.3-.149.1-.177-.014-.347-.227-.347a5.065,5.065,0,0,1-1.169-.3c-.092-.043-.163-.12-.163-.177s-.028-.092-.071-.092-.078-1.46-.085-4.075c-.014-2.24,0-4.075.028-4.075a1.1,1.1,0,0,1,.255.3,6.077,6.077,0,0,0,.376.489c.092.1.284.319.418.489l.376.454c.071.078.22.255.319.39.177.234.645.78.723.858.021.021.149.177.284.354a9.714,9.714,0,0,0,.73.865.816.816,0,0,1,.191.269.1.1,0,0,0,.057.085,2.334,2.334,0,0,1,.319.354c.149.184.3.376.354.425s.2.234.333.411.276.354.319.4.177.206.3.369.312.369.39.461a7.418,7.418,0,0,1,.546.659,4.434,4.434,0,0,0,.362.432c.135.149.34.4.454.546.468.617.758.893.957.893a.265.265,0,0,0,.241-.113c.021-.064.043-2.63.043-5.706,0-6.748-.1-6.181,1.091-6.393.73-.135.886-.255.638-.5-.092-.1-.4-.113-2.226-.113-1.162,0-2.162.021-2.225.043a.265.265,0,0,0-.113.241c0,.22-.05.2.85.361a1.192,1.192,0,0,1,.6.234c.3.3.319.532.319,4.465,0,3.324-.014,3.735-.106,3.657a.3.3,0,0,1-.106-.156.343.343,0,0,0-.085-.156c-.05-.05-.205-.234-.34-.4s-.3-.354-.354-.418a4.429,4.429,0,0,1-.319-.4,4.157,4.157,0,0,0-.319-.39c-.057-.064-.191-.227-.3-.362s-.291-.354-.411-.489a6.491,6.491,0,0,1-.439-.532c-.113-.156-.312-.4-.432-.532s-.34-.39-.475-.567-.262-.333-.283-.354c-.05-.043-.737-.865-1.063-1.276-.135-.17-.276-.34-.319-.383s-.262-.319-.5-.61-.454-.567-.5-.61-.184-.213-.319-.383-.284-.34-.319-.383-.163-.2-.276-.347l-.2-.262H1931.9A10.251,10.251,0,0,0,1930.18-387.922Z" transform="translate(-1613.938 -209.982)" fill="red"/>
    <path id="Path_6591" data-name="Path 6591" d="M2741.6-387.9c-.128.135-.078.454.085.5a4.225,4.225,0,0,0,.588.078c.39.043.5.085.666.255.383.4.383.361.383,5.429,0,4.416-.007,4.706-.135,5a1.362,1.362,0,0,1-.227.383,3.057,3.057,0,0,1-1.141.291c-.276.035-.383.213-.241.411.071.092.354.106,2.311.092l2.233-.021.021-.234c.021-.213.007-.227-.191-.227a3.364,3.364,0,0,1-1.276-.333c-.277-.284-.291-.475-.291-4.841,0-3.785.014-4.2.106-4.012a.911.911,0,0,1,.106.326.324.324,0,0,0,.106.213.314.314,0,0,1,.106.184,1.35,1.35,0,0,0,.227.525c.028.057.078.156.1.213a4.853,4.853,0,0,0,.248.567,1.488,1.488,0,0,1,.106.213c.064.156.34.765.553,1.2a2.087,2.087,0,0,1,.184.517c0,.064.029.12.064.12s.085.071.113.156a5,5,0,0,0,.206.517c.092.191.248.546.354.78s.227.475.262.532a1.488,1.488,0,0,1,.106.213c.106.276.17.418.347.815.106.234.22.475.255.532a1.488,1.488,0,0,1,.106.213,4.885,4.885,0,0,0,.248.567,1.49,1.49,0,0,1,.106.213c.021.057.114.262.206.461s.177.411.206.475c.028.092.114.128.326.128s.3-.035.326-.128c.042-.121.177-.432.553-1.24.1-.22.27-.588.369-.815s.213-.454.248-.51a1.49,1.49,0,0,0,.106-.213,4.81,4.81,0,0,1,.248-.567,1.49,1.49,0,0,0,.106-.213c.021-.057.121-.269.213-.461a2.131,2.131,0,0,0,.17-.447.345.345,0,0,1,.106-.2.432.432,0,0,0,.106-.248c0-.071.036-.135.071-.135s.071-.05.071-.106a2.114,2.114,0,0,1,.163-.447c.092-.184.22-.447.276-.581s.191-.432.3-.659c.276-.6.5-1.1.716-1.573.107-.234.22-.475.255-.532a3.166,3.166,0,0,0,.241-.567c.085-.213.1.354.1,4,.007,3.827-.007,4.274-.114,4.515a.91.91,0,0,1-.794.51.814.814,0,0,0-.269.071.643.643,0,0,1-.312.05c-.206,0-.276.035-.312.142-.114.347-.071.354,2.842.354h2.722v-.248c0-.22-.021-.248-.184-.248a2.894,2.894,0,0,1-1.29-.383c-.262-.3-.3-.9-.3-5.472.007-4.742.028-5.061.368-5.337a1.594,1.594,0,0,1,.624-.22c.836-.142.794-.121.765-.376l-.021-.227-1.822-.021L2753.96-388l-.22.475c-.127.269-.255.532-.291.588a1.514,1.514,0,0,0-.106.213c-.021.057-.071.17-.1.248a2.153,2.153,0,0,0-.106.3c-.028.092-.078.163-.114.163s-.063.05-.063.1a1.6,1.6,0,0,1-.177.439,1.549,1.549,0,0,0-.177.454.324.324,0,0,1-.106.213.294.294,0,0,0-.106.184,1.667,1.667,0,0,1-.177.425,1.657,1.657,0,0,0-.177.425c0,.057-.028.1-.071.1s-.071.05-.071.113a.769.769,0,0,1-.1.3c-.05.106-.135.284-.184.4s-.114.262-.149.319a1.439,1.439,0,0,0-.106.213c-.078.191-.4.879-.5,1.077a.768.768,0,0,0-.1.3c0,.064-.028.113-.071.113s-.071.05-.071.113a.765.765,0,0,1-.1.3c-.057.106-.163.326-.227.489s-.149.3-.184.3-.057.043-.057.092a2.581,2.581,0,0,1-.291.7.644.644,0,0,0-.064.248c0,.106-.014.1-.106-.021a.558.558,0,0,1-.106-.284.362.362,0,0,0-.106-.241.3.3,0,0,1-.106-.177,1.983,1.983,0,0,0-.17-.439c-.184-.369-.461-.964-.737-1.581-.092-.213-.2-.439-.234-.5a1.439,1.439,0,0,1-.106-.213c-.036-.1-.128-.3-.567-1.262-.106-.22-.269-.581-.368-.794s-.2-.439-.234-.5a1.488,1.488,0,0,1-.106-.213,4.858,4.858,0,0,0-.248-.567,1.49,1.49,0,0,1-.106-.213c-.078-.206-.4-.886-.461-.992a1.514,1.514,0,0,1-.106-.213,5.568,5.568,0,0,0-.518-1.084c-.092-.106-.269-.121-1.857-.121C2742.025-388,2741.685-387.979,2741.6-387.9Z" transform="translate(-2367.883 -209.982)" fill="red"/>
    <path id="Path_6592" data-name="Path 6592" d="M2975.14-387.962a.246.246,0,0,0,.043.4,3.772,3.772,0,0,0,.688.156,2.638,2.638,0,0,1,.659.156,1.581,1.581,0,0,1,.227.4c.135.3.142.482.142,5.1,0,4.331-.014,4.805-.12,5.039a1.445,1.445,0,0,1-.234.376c-.163.163-.255.191-1.134.333-.3.043-.319.064-.319.262v.213h5.529l.021-.22c.021-.22.007-.227-.284-.262a6.716,6.716,0,0,1-.829-.149c-.553-.128-.659-.6-.695-3.225l-.028-1.935.2.05a19.133,19.133,0,0,0,3.168.035.424.424,0,0,1,.241-.071,3.34,3.34,0,0,0,1.5-.971.181.181,0,0,1,.1-.142,3.162,3.162,0,0,0,.723-1.807,3.506,3.506,0,0,0-.2-1.446.332.332,0,0,1-.057-.213c0-.092-.028-.17-.064-.17s-.085-.057-.106-.128a4.8,4.8,0,0,0-1.035-1.084,4.347,4.347,0,0,0-1.24-.581c-.114-.021-.34-.071-.5-.113A60.085,60.085,0,0,0,2975.14-387.962Zm5.358.773a4.224,4.224,0,0,1,.574.184,2.481,2.481,0,0,1,.964.985c.064.149.163.383.22.51a5.121,5.121,0,0,1-.007,2.077c-.057.113-.163.312-.227.432a2.743,2.743,0,0,1-.815.858,3.62,3.62,0,0,1-1.5.177,1.583,1.583,0,0,0-.5-.057h-.4l.014-2.559.021-2.559.347-.028a1.3,1.3,0,0,0,.383-.064A2,2,0,0,1,2980.5-387.19Z" transform="translate(-2584.874 -209.934)" fill="red"/>
    <path id="Path_6593" data-name="Path 6593" d="M3116.21-387.922a.223.223,0,0,0,.036.411,5.294,5.294,0,0,0,.688.149c.985.163.943-.028,1,4.713.035,3.792.085,4.543.284,4.749a.378.378,0,0,1,.063.227c0,.092.028.163.057.163s.114.121.177.269a4.014,4.014,0,0,0,1.644,1.531c.156.064.34.149.4.184a.741.741,0,0,0,.326.071.543.543,0,0,1,.291.085,5.19,5.19,0,0,0,1.637.092,5.191,5.191,0,0,0,1.637-.092.492.492,0,0,1,.276-.085,3.377,3.377,0,0,0,1.247-.6,5.139,5.139,0,0,0,1.12-1.2.914.914,0,0,1,.184-.291c.043-.021.071-.121.071-.22a.8.8,0,0,1,.063-.3c.206-.4.248-1.006.291-4.657.021-2.07.071-3.842.1-3.948a1.065,1.065,0,0,1,.907-.687c.673-.128.794-.177.822-.312.064-.319-.014-.333-2.289-.333-1.184,0-2.2.021-2.261.043a.27.27,0,0,0-.113.248c0,.177.028.206.269.241a4.524,4.524,0,0,1,1.191.3c.3.191.319.4.291,4.451-.021,3.728-.071,4.55-.269,4.742a.3.3,0,0,0-.064.17,2.917,2.917,0,0,1-1.042,1.148c-.05,0-.092.028-.092.057q0,.074-.638.319a5.723,5.723,0,0,1-.567.135,3.677,3.677,0,0,1-2.608-.284c-.312-.149-.936-.78-.936-.943,0-.078-.028-.135-.071-.135s-.071-.085-.071-.184a1.35,1.35,0,0,0-.1-.4c-.156-.347-.191-.936-.227-4.586s-.014-4.061.3-4.409a1.036,1.036,0,0,1,.645-.269c.851-.142.808-.121.78-.376l-.021-.227-2.658-.014A21.351,21.351,0,0,0,3116.21-387.922Z" transform="translate(-2715.907 -209.982)" fill="red"/>
    <path id="Path_6594" data-name="Path 6594" d="M3314.23-387.887c-.092.1-.106.3-.092,1.432l.021,1.325h.5l.114-.5a1.817,1.817,0,0,1,.539-1.148,1.125,1.125,0,0,1,.73-.362,4.988,4.988,0,0,1,.638-.092c.1,0,.5-.014.907-.035l.723-.043v5.252c0,4.756-.014,5.273-.12,5.493a.938.938,0,0,1-.794.489.812.812,0,0,0-.269.071.533.533,0,0,1-.276.05c-.17,0-.241.035-.277.142-.114.347-.071.354,2.807.354h2.686v-.241c0-.234-.007-.241-.368-.284a2.32,2.32,0,0,1-1.134-.383,1.2,1.2,0,0,1-.156-.517c-.021-.213-.043-2.637-.043-5.387v-4.99h.9c1.29.007,1.907.184,2.282.666a1.046,1.046,0,0,1,.22.376.284.284,0,0,0,.071.17,1.193,1.193,0,0,1,.121.439c.05.418.142.532.425.5l.2-.021-.014-1.29a6.94,6.94,0,0,0-.092-1.432c-.078-.149-.106-.149-5.1-.149C3314.868-388,3314.337-387.986,3314.23-387.887Z" transform="translate(-2899.915 -209.982)" fill="red"/>
    <path id="Path_6595" data-name="Path 6595" d="M3470.085-387.915a.265.265,0,0,0,.007.39,2.812,2.812,0,0,0,.652.156c.468.071.6.12.751.284.17.184.184.255.227,1.177.064,1.219.05,7.683-.014,8.661-.042.688-.05.73-.255.9a1.779,1.779,0,0,1-.744.3c-.709.149-.709.149-.709.291.007.312-.135.3,4.926.291l4.806-.021.064-.213c.035-.12.092-.276.12-.354a4.382,4.382,0,0,0,.269-.836.455.455,0,0,1,.1-.234.261.261,0,0,0,.064-.2.608.608,0,0,1,.106-.3.536.536,0,0,0,.106-.284.358.358,0,0,1,.078-.22c.121-.12.05-.546-.1-.574-.234-.05-.475.05-.475.191a.341.341,0,0,1-.106.22.313.313,0,0,0-.106.184c0,.057-.028.1-.064.1s-.085.057-.106.121a3.485,3.485,0,0,1-1.077,1.3,1.908,1.908,0,0,0-.312.184,14.763,14.763,0,0,1-3.87.177c-.631-.085-.6.064-.6-2.835v-2.559h1.12c.61,0,1.4.035,1.751.078.957.113,1.233.383,1.347,1.3l.05.4h.624L3478.7-382l-.021-2.141-.2-.021c-.283-.035-.383.078-.439.517-.085.7-.347,1.028-.922,1.169a16.8,16.8,0,0,1-1.822.12l-1.474.035V-387.3l1.651.035c.9.014,1.722.028,1.822.035a3.815,3.815,0,0,1,1.092.248,1,1,0,0,1,.461.5c.05.113.135.3.191.411a1.213,1.213,0,0,1,.1.461c.007.347.142.51.411.51.3,0,.326-.12.262-1.531-.036-.879-.078-1.191-.156-1.269s-.773-.106-4.8-.106A42.4,42.4,0,0,0,3470.085-387.915Z" transform="translate(-3044.735 -209.982)" fill="red"/>
    <path id="Path_6596" data-name="Path 6596" d="M3628.153-387.91a.238.238,0,0,0,.071.411,4.931,4.931,0,0,0,.674.156c.468.078.546.113.709.333l.191.248.021,4.969c.014,4.642.007,4.983-.106,5.231a1,1,0,0,1-.843.524c-.149.021-.376.057-.5.078-.241.035-.34.2-.262.4.042.106.291.113,2.75.1l2.7-.021.021-.22c.021-.22.014-.227-.319-.269-.184-.021-.39-.05-.447-.064s-.206-.05-.333-.085a.911.911,0,0,1-.39-.227l-.163-.177v-4.628l.425-.021c.418-.021.744.078.744.227a.687.687,0,0,0,.177.269.935.935,0,0,1,.177.234,8.463,8.463,0,0,0,.865,1.155.156.156,0,0,1,.057.128c0,.057.028.1.064.1s.085.057.106.12a1.4,1.4,0,0,0,.22.34c.092.113.2.241.234.283a1.138,1.138,0,0,1,.106.191c.021.071.078.128.121.128s.071.05.071.106.035.106.071.106.071.043.071.092a.652.652,0,0,0,.177.276.812.812,0,0,1,.177.241,3.126,3.126,0,0,0,.51.652.1.1,0,0,1,.057.092,3.009,3.009,0,0,0,.333.525l.333.461,1.772-.014,1.779-.021.021-.177c.028-.269-.064-.347-.524-.432a2.864,2.864,0,0,1-.539-.142.645.645,0,0,0-.234-.064,3.475,3.475,0,0,1-1.2-.943c-.156-.191-.368-.454-.475-.574a.832.832,0,0,1-.2-.3.117.117,0,0,0-.057-.106,3.134,3.134,0,0,1-.51-.652.809.809,0,0,0-.177-.241.727.727,0,0,1-.177-.248.808.808,0,0,0-.177-.248.8.8,0,0,1-.177-.248.341.341,0,0,0-.085-.156c-.212-.234-.269-.319-.269-.39a.065.065,0,0,0-.057-.071c-.028,0-.113-.106-.184-.241a.785.785,0,0,0-.227-.284.142.142,0,0,1-.1-.113.691.691,0,0,0-.177-.269c-.206-.22-.22-.3-.057-.3a4.921,4.921,0,0,0,1.7-.73,2.586,2.586,0,0,0,.843-.964,2.5,2.5,0,0,1,.177-.291.725.725,0,0,0,.085-.248c.021-.12.078-.361.128-.553a1.1,1.1,0,0,0,0-.673c-.05-.184-.106-.432-.128-.546a.667.667,0,0,0-.085-.248,1.807,1.807,0,0,1-.177-.3,3.72,3.72,0,0,0-2.133-1.538.486.486,0,0,1-.3-.092A62.964,62.964,0,0,0,3628.153-387.91Zm5.614.787a1.213,1.213,0,0,1,.461.142c0,.035.057.057.128.057a1.8,1.8,0,0,1,.723.631.072.072,0,0,0,.064.078c.1,0,.269.376.326.709a.774.774,0,0,0,.113.326,1.909,1.909,0,0,1,0,.978.648.648,0,0,0-.113.3,2.282,2.282,0,0,1-.943,1.311,1.424,1.424,0,0,0-.283.22.263.263,0,0,1-.191.057.99.99,0,0,0-.369.1,6.6,6.6,0,0,1-1.623.255h-.206l.014-2.459.021-2.459.156-.071a5.1,5.1,0,0,1,1.07-.248A5.508,5.508,0,0,1,3633.767-387.123Z" transform="translate(-3191.597 -209.994)" fill="red"/>
    <path id="Path_6597" data-name="Path 6597" d="M193-312.283c0,.057,20.937,20.98,21,20.98.028,0,.05-1.063.05-2.36v-2.353l-8.13-8.13-8.137-8.137-2.4-.014C194.077-312.311,193-312.3,193-312.283Z" transform="translate(0 -280.313)" fill="red"/>
    <path id="Path_6598" data-name="Path 6598" d="M513.256-312.339l-2.374.014-8.1,8.1-8.1,8.1-.014,2.389c-.007,1.311,0,2.389.021,2.389.057,0,21.015-20.973,20.98-20.994S514.56-312.354,513.256-312.339Z" transform="translate(-280.281 -280.27)" fill="red"/>
  </g>
</svg>
