<svg xmlns="http://www.w3.org/2000/svg" width="218.5" height="36.176" viewBox="0 0 218.5 36.176">
  <g id="logo-haiphongcomputer" transform="translate(-193 614)">
    <path id="Path_6573" data-name="Path 6573" d="M201.935-605.059c-4.912,4.912-8.935,8.953-8.935,8.984s.92.042,2.039.042h2.045l6.939-6.945,6.945-6.939v-2.045a20.281,20.281,0,0,0-.048-2.039C210.894-614,206.853-609.977,201.935-605.059Z" fill="#fff"/>
    <path id="Path_6574" data-name="Path 6574" d="M494.665-611.961l.012,2.039,6.945,6.945,6.945,6.945h2.008a19.83,19.83,0,0,0,2.014-.048c0-.048-17.858-17.919-17.906-17.919C494.665-614,494.659-613.08,494.665-611.961Z" transform="translate(-283.413)" fill="#fff"/>
    <path id="Path_6575" data-name="Path 6575" d="M273.306-533.194l-6.806,6.806,6.824,6.824,6.818,6.818,6.818-6.818,6.824-6.824-6.806-6.806c-3.745-3.745-6.818-6.806-6.836-6.806S277.05-536.939,273.306-533.194Zm2.226,2.553.012,2.438h3.569v.726h-3.569v.786h-.726v-6.418l.351.018.345.018Zm9.117-2.371a3.564,3.564,0,0,1,2.619,2.317,2.445,2.445,0,0,1,.151,1.1,2.446,2.446,0,0,1-.151,1.1,3.527,3.527,0,0,1-2.964,2.371l-.351.042v-.72l.43-.073a2.8,2.8,0,0,0,2.3-2.323,2.8,2.8,0,0,0-2.287-3.121c-.2-.036-1.125-.061-2.063-.061h-1.712v4.9H279.9V-533.1h2.166A16.735,16.735,0,0,1,284.649-533.013Zm-2.5,3.823.018,2.347.411.018.405.018v.72h-.847v3.575l-.345-.018-.351-.018-.018-4.495-.012-4.489h.726Zm-1.524,4.586v2.093l-.345-.018-.351-.018-.018-2.075-.012-2.069h.726Zm-5.094.405-.018,1.651-.345.018-.351.018v-3.333h.726Zm-.315,2.74a1.145,1.145,0,0,1,.115.641.5.5,0,0,1-.278.055h-.236v-.272c0-.151-.024-.272-.06-.272a1.53,1.53,0,0,0-.061.635,1.529,1.529,0,0,0,.061.635c.036,0,.06-.1.06-.212,0-.212,0-.212.272-.212h.278l-.042.224c-.054.321-.127.436-.3.5a.646.646,0,0,1-.672-.085c-.163-.139-.169-.169-.188-.774-.018-.72.042-.9.345-.992A.759.759,0,0,1,275.217-521.458Zm1.579-.091a1.1,1.1,0,0,1,.115.188,1.64,1.64,0,0,1,.073.792c-.018.575-.024.611-.187.75a.606.606,0,0,1-.7.054c-.23-.115-.248-.181-.248-.9,0-.538.018-.647.121-.78a.574.574,0,0,1,.635-.151A1.6,1.6,0,0,0,276.8-521.549Zm1.373.127a2.618,2.618,0,0,1,.036.375c0,.284.085.133.121-.218l.03-.315.321-.018.315-.018v1.882h-.424l-.006-.5-.012-.5-.061.5c-.06.49-.06.5-.224.5-.145,0-.169-.03-.206-.23a3.437,3.437,0,0,1-.036-.417.36.36,0,0,0-.06-.23c-.048-.03-.054.1-.024.417l.042.46h-.5v-.9a5.5,5.5,0,0,1,.042-.938.775.775,0,0,1,.321-.042C278.115-521.61,278.133-521.6,278.169-521.422Zm2.3-.036a.5.5,0,0,1,.151.423c0,.387-.079.508-.363.55l-.242.042v.708h-.484v-1.875h.393C280.275-521.61,280.347-521.591,280.474-521.458Zm1.119.635a2.257,2.257,0,0,0,.061.786,2.261,2.261,0,0,0,.06-.786v-.786h.484v.817c0,.8-.006.829-.157.98-.133.133-.194.151-.43.121-.46-.049-.5-.127-.5-1.041-.006-.436-.006-.8-.006-.835s.115-.042.248-.042h.242Zm2.117-.611c0,.139-.03.181-.133.2-.133.018-.139.042-.157.756l-.018.744h-.478v-.756c0-.714-.006-.756-.121-.756-.1,0-.121-.042-.121-.181v-.182h1.028Zm1.3.036c0,.151-.024.181-.163.2s-.169.054-.169.169.03.145.151.145.151.03.151.181-.024.181-.151.181-.151.024-.151.212.012.212.182.212.181.018.181.182v.181h-.847v-1.882l.411.018.405.018Zm1.379-.145c.188.1.224.169.224.454a.454.454,0,0,1-.1.333c-.085.067-.085.079,0,.127s.1.157.1.472v.424h-.484v-.424c0-.242-.024-.423-.061-.423s-.061.181-.061.423v.424h-.484v-1.875h.369A1.533,1.533,0,0,1,286.391-521.543Z" transform="translate(-69.054 -69.523)" fill="#fff"/>
    <path id="Path_6576" data-name="Path 6576" d="M429-230.365a1.532,1.532,0,0,0,.06.635,1.53,1.53,0,0,0,.06-.635,1.53,1.53,0,0,0-.06-.635A1.533,1.533,0,0,0,429-230.365Z" transform="translate(-221.723 -359.83)" fill="#fff"/>
    <path id="Path_6577" data-name="Path 6577" d="M490-229.788c0,.145.03.212.091.212s.091-.067.091-.212-.03-.212-.091-.212S490-229.933,490-229.788Z" transform="translate(-279.033 -360.77)" fill="#fff"/>
    <path id="Path_6578" data-name="Path 6578" d="M589-229.819c0,.1.03.182.06.182s.061-.085.061-.182S589.1-230,589.06-230,589-229.921,589-229.819Z" transform="translate(-372.044 -360.77)" fill="#fff"/>
    <path id="Path_6579" data-name="Path 6579" d="M1147.389-442.861c-.369.321-.466.732-.242,1,.091.109.182.145.4.145.175.006.3-.024.333-.079a.555.555,0,0,0-.042-.544c-.085-.073-.085-.085.012-.157a.5.5,0,0,1,.75.339.565.565,0,0,1-.091.284.445.445,0,0,0-.091.218c0,.061-.024.109-.054.109s-.073.067-.091.151-.066.151-.1.151-.061.048-.061.109a.264.264,0,0,1-.054.163c-.1.121-.133.557-.036.635s.393.03.393-.085a1.635,1.635,0,0,1,.52-.8c.629-.665.7-1.077.273-1.531l-.236-.248h-.714C1147.6-443,1147.528-442.988,1147.389-442.861Z" transform="translate(-896.313 -160.655)" fill="#fff"/>
    <path id="Path_6580" data-name="Path 6580" d="M1810-442.952a.922.922,0,0,0,.23.266c.121.121.345.351.49.508s.563.617.932,1c.593.635.69.714.871.714s.2-.012.2-.206c0-.115-.024-.23-.061-.248a.188.188,0,0,1-.061-.139.854.854,0,0,0-.09-.278.808.808,0,0,1-.091-.3.478.478,0,0,0-.091-.242.563.563,0,0,1-.091-.284c0-.091-.025-.188-.061-.206a.218.218,0,0,1-.06-.163.786.786,0,0,0-.1-.3l-.1-.175h-.956A5.01,5.01,0,0,0,1810-442.952Z" transform="translate(-1519.179 -160.655)" fill="#fff"/>
    <path id="Path_6581" data-name="Path 6581" d="M1077.254-390.009c-.018.061-.067.188-.109.29-.109.254-.224.514-.309.726-.042.1-.151.333-.236.514a2.043,2.043,0,0,0-.157.405,2.225,2.225,0,0,1-.157.393c-.151.3-.212.436-.387.865-.127.3-.254.6-.309.708a.53.53,0,0,0-.054.194.268.268,0,0,1-.091.157.29.29,0,0,0-.091.188,1.286,1.286,0,0,1-.151.393,1.827,1.827,0,0,0-.151.333,2.948,2.948,0,0,1-.157.4c-.085.194-.2.448-.254.563s-.115.26-.139.315a.519.519,0,0,0-.055.194.267.267,0,0,1-.091.157.328.328,0,0,0-.091.218c0,.079-.025.145-.061.145s-.06.048-.06.109a.481.481,0,0,1-.091.23.429.429,0,0,0-.091.206,1.721,1.721,0,0,1-.145.393c-.157.333-.43.913-.49,1.059a3.571,3.571,0,0,1-.333.569c-.151.224-.3.314-.787.466-.254.079-.272.1-.29.309l-.018.23h1.73c1.863,0,1.845.006,1.76-.321-.024-.1-.1-.151-.351-.212a3.672,3.672,0,0,0-.454-.073.419.419,0,0,1-.26-.163.819.819,0,0,1,.012-.8c.03-.085.1-.236.139-.333s.109-.266.151-.363c.1-.248.212-.508.3-.726a2.455,2.455,0,0,1,.127-.272,1,1,0,0,0,.091-.2c.036-.1.182-.1,1.936-.1h1.9l.066.163c.042.1.1.236.127.321s.1.23.139.333.121.29.181.423.121.3.151.363c.272.653.321,1.095.139,1.252a1.768,1.768,0,0,1-.5.175c-.405.085-.532.218-.417.43.048.1.218.109,2.2.109h2.148v-.466l-.345-.073a2.593,2.593,0,0,1-.472-.139,1.131,1.131,0,0,1-.55-.611c-.024-.055-.06-.1-.091-.1s-.054-.048-.054-.115a.289.289,0,0,0-.091-.187.268.268,0,0,1-.091-.157c0-.085-.018-.133-.2-.5a1.1,1.1,0,0,1-.1-.284,1.349,1.349,0,0,0-.151-.369,1.409,1.409,0,0,1-.151-.357,1.408,1.408,0,0,0-.151-.357,1.286,1.286,0,0,1-.151-.393.292.292,0,0,0-.09-.188.29.29,0,0,1-.091-.187.579.579,0,0,0-.054-.224c-.03-.054-.1-.2-.145-.315s-.163-.369-.248-.563a2.871,2.871,0,0,1-.157-.405.407.407,0,0,0-.06-.169c-.03-.054-.1-.212-.157-.345s-.133-.327-.175-.423-.109-.266-.151-.363-.109-.266-.151-.363-.109-.266-.151-.363a3.084,3.084,0,0,0-.157-.351.8.8,0,0,1-.085-.29c0-.06-.024-.115-.055-.115s-.072-.079-.1-.182a.458.458,0,0,0-.1-.212.264.264,0,0,1-.054-.175.327.327,0,0,0-.091-.218.29.29,0,0,1-.091-.187c0-.115-.018-.163-.206-.52a.867.867,0,0,1-.1-.272C1077.956-390.075,1077.326-390.238,1077.254-390.009Zm-.036,2.91a1.71,1.71,0,0,0,.169.405,1.312,1.312,0,0,1,.145.387.29.29,0,0,0,.091.187.328.328,0,0,1,.09.218c0,.079.03.145.061.145s.06.067.06.145a.327.327,0,0,0,.091.218.327.327,0,0,1,.091.218.251.251,0,0,0,.06.175.172.172,0,0,1,.061.145.291.291,0,0,0,.091.187.292.292,0,0,1,.091.188,1.281,1.281,0,0,0,.151.393,1.283,1.283,0,0,1,.151.393c0,.066.03.115.06.115a.057.057,0,0,1,.061.06,9.164,9.164,0,0,1-1.633.061c-1.555,0-1.633-.006-1.633-.115a.291.291,0,0,1,.09-.188.291.291,0,0,0,.091-.188.192.192,0,0,1,.061-.145.173.173,0,0,0,.06-.145.292.292,0,0,1,.091-.188.276.276,0,0,0,.091-.181,1.761,1.761,0,0,1,.157-.436c.091-.175.181-.375.212-.442.169-.417.4-.95.484-1.131a.523.523,0,0,0,.054-.194.267.267,0,0,1,.091-.157.292.292,0,0,0,.091-.194C1077.048-387.317,1077.193-387.268,1077.218-387.1Z" transform="translate(-825.731 -210.338)" fill="#fff"/>
    <path id="Path_6582" data-name="Path 6582" d="M1758.319-389.939a.306.306,0,0,1-.206.061.565.565,0,0,0-.284.091.426.426,0,0,1-.212.091,4.532,4.532,0,0,0-1.482.889,5.5,5.5,0,0,0-1.053,1.222.062.062,0,0,1-.054.066c-.031,0-.067.048-.091.1a.976.976,0,0,1-.091.2,2.386,2.386,0,0,0-.127.272,3.509,3.509,0,0,1-.157.351.909.909,0,0,0-.084.345.341.341,0,0,1-.049.206,6.648,6.648,0,0,0-.169,1.894,6.272,6.272,0,0,0,.315,1.694.92.92,0,0,1,.084.254,1.223,1.223,0,0,0,.194.43,1.1,1.1,0,0,1,.085.194c.024.061.06.109.091.109a.06.06,0,0,1,.054.061,5.4,5.4,0,0,0,1.313,1.452.336.336,0,0,1,.163.115,2.257,2.257,0,0,0,.508.308c.224.109.46.224.526.26a4.341,4.341,0,0,0,.908.23,8.934,8.934,0,0,0,2.014-.018c.121-.03.29-.073.375-.091a1.639,1.639,0,0,0,.333-.109c.1-.042.284-.127.405-.182a.8.8,0,0,0,.26-.151.191.191,0,0,1,.158-.061c.06,0,.115-.024.115-.048a1.3,1.3,0,0,1,.321-.254,6.271,6.271,0,0,0,1.161-1.174,2.927,2.927,0,0,1,.2-.248.345.345,0,0,0,.073-.169.162.162,0,0,1,.09-.127.178.178,0,0,0,.091-.157c0-.067.031-.121.061-.121s.06-.048.06-.109a.485.485,0,0,1,.091-.23.524.524,0,0,0,.091-.278.287.287,0,0,1,.06-.2c.036-.018.061-.121.061-.218a1.344,1.344,0,0,1,.091-.4,8.345,8.345,0,0,0,.03-2.293,1.215,1.215,0,0,1-.127-.393c-.115-.6-.127-.653-.212-.726a.217.217,0,0,1-.084-.151,1.523,1.523,0,0,0-.157-.369,6.013,6.013,0,0,0-2.154-2.154,1.01,1.01,0,0,1-.26-.163c-.018-.036-.1-.06-.169-.06a.479.479,0,0,1-.248-.091.564.564,0,0,0-.284-.091.306.306,0,0,1-.206-.061,5.688,5.688,0,0,0-1.21-.06A5.686,5.686,0,0,0,1758.319-389.939Zm2.4.841a3.22,3.22,0,0,1,1.076.883.837.837,0,0,0,.151.248.728.728,0,0,1,.151.29.544.544,0,0,0,.055.206,1.665,1.665,0,0,1,.248.678.391.391,0,0,0,.06.218,11.65,11.65,0,0,1,.012,4.271.405.405,0,0,0-.073.236.9.9,0,0,1-.085.339c-.048.091-.121.248-.163.351a5.808,5.808,0,0,1-.635.919,3.682,3.682,0,0,1-.938.563.2.2,0,0,0-.139.048,1.8,1.8,0,0,1-.539.133,3,3,0,0,1-1.464-.121c-.066-.024-.163-.067-.212-.085a3.794,3.794,0,0,1-1.15-1.095.126.126,0,0,0-.042-.1,3.288,3.288,0,0,1-.442-.974.156.156,0,0,0-.061-.133.432.432,0,0,1-.06-.26,1.774,1.774,0,0,0-.1-.5,12.627,12.627,0,0,1,0-3.236,1.246,1.246,0,0,0,.1-.43.37.37,0,0,1,.06-.236c.036-.018.061-.091.061-.163a.689.689,0,0,1,.085-.278c.042-.091.133-.272.194-.405a.776.776,0,0,1,.163-.26.1.1,0,0,0,.042-.085,3.578,3.578,0,0,1,.738-.8,3.242,3.242,0,0,1,.956-.417c.115-.012.514-.018.877-.006A2.127,2.127,0,0,1,1760.721-389.1Z" transform="translate(-1466.803 -210.449)" fill="#fff"/>
    <path id="Path_6583" data-name="Path 6583" d="M2135.976-390.033a.477.477,0,0,1-.212.061.857.857,0,0,0-.3.091.81.81,0,0,1-.254.091.939.939,0,0,0-.315.139c-.121.079-.266.163-.315.188a3.079,3.079,0,0,0-.574.369,5.492,5.492,0,0,0-1.676,2.039c-.073.163-.151.29-.181.29s-.048.048-.048.115a.8.8,0,0,1-.091.284.853.853,0,0,0-.091.278.17.17,0,0,1-.054.133,7.9,7.9,0,0,0-.006,2.97.95.95,0,0,1,.091.272,1.778,1.778,0,0,0,.218.544c.03.048.1.188.157.3a5.129,5.129,0,0,0,.926,1.21c.478.466.641.6.714.6a.25.25,0,0,1,.127.079,1.733,1.733,0,0,0,.411.248c.194.091.4.194.454.224a.511.511,0,0,0,.176.054.92.92,0,0,1,.254.085,1.63,1.63,0,0,0,.405.115c.115.018.333.061.484.1a15.057,15.057,0,0,0,2.662,0c.151-.03.369-.073.484-.091a1.954,1.954,0,0,0,.405-.121.907.907,0,0,1,.278-.085.156.156,0,0,0,.133-.061c.018-.036.115-.06.212-.06s.194-.024.212-.06a1.325,1.325,0,0,1,.339-.194.633.633,0,0,0,.363-.272c.03-.079.054-1.016.054-2.075a13.94,13.94,0,0,1,.061-1.966.173.173,0,0,0,.061-.145c0-.127.3-.29.726-.4.248-.061.272-.085.272-.248v-.175l-2.1-.018-2.1-.012v.242c0,.133.018.242.048.248a4.881,4.881,0,0,1,.732.079.651.651,0,0,1,.46.508c.024.127.06.29.079.375s.042.877.054,1.76l.025,1.609-.339.163a2.043,2.043,0,0,1-.424.157.149.149,0,0,0-.115.054,5.263,5.263,0,0,1-1.942.1,3.835,3.835,0,0,1-1.518-.726,5.167,5.167,0,0,1-.992-1.228,1.644,1.644,0,0,0-.152-.339,1.326,1.326,0,0,1-.151-.387.446.446,0,0,0-.09-.218.618.618,0,0,1-.091-.315.353.353,0,0,0-.055-.23,7.317,7.317,0,0,1-.078-2.547c.042-.266.091-.587.109-.708a.627.627,0,0,1,.121-.3.243.243,0,0,0,.085-.175,4.066,4.066,0,0,1,1.361-1.881,3.388,3.388,0,0,0,.3-.169.745.745,0,0,1,.272-.121,1.049,1.049,0,0,0,.273-.109,6.738,6.738,0,0,1,2.28-.03.566.566,0,0,0,.212.1,1.3,1.3,0,0,1,.321.151c.115.067.254.145.3.169a3.7,3.7,0,0,1,.865.926,8.734,8.734,0,0,1,.55,1.161c.018.073.091.109.2.109.3,0,.339-.06.266-.454a6.354,6.354,0,0,1-.067-.932,6.4,6.4,0,0,0-.067-.853,5.7,5.7,0,0,1-.1-.714l-.03-.442-.254.018c-.23.018-.248.03-.266.218-.031.327-.266.357-.95.133-.134-.042-.327-.115-.436-.163a1.09,1.09,0,0,0-.339-.079.279.279,0,0,1-.193-.061A14.708,14.708,0,0,0,2135.976-390.033Z" transform="translate(-1821.441 -210.355)" fill="#fff"/>
    <path id="Path_6584" data-name="Path 6584" d="M2389.889-389.681a1.088,1.088,0,0,1-.327.091,1.508,1.508,0,0,0-.333.1c-.054.024-.26.127-.459.224A5.221,5.221,0,0,0,2386.4-387c-.024.06-.061.109-.091.109s-.055.042-.055.1a.82.82,0,0,1-.1.284c-.187.357-.205.405-.205.5a.89.89,0,0,1-.085.284,4.689,4.689,0,0,0-.175,1.615,4.781,4.781,0,0,0,.327,2.069.606.606,0,0,1,.054.224.193.193,0,0,0,.06.157.99.99,0,0,1,.164.26,7.477,7.477,0,0,0,.933,1.282,4.557,4.557,0,0,0,.858.678,2.058,2.058,0,0,1,.249.169.284.284,0,0,0,.169.061c.06,0,.109.024.109.06s.048.06.109.06a.485.485,0,0,1,.23.091.631.631,0,0,0,.326.091.494.494,0,0,1,.291.073,9.06,9.06,0,0,0,2.341.054c.169-.03.387-.079.484-.1a3.713,3.713,0,0,0,.708-.278.489.489,0,0,1,.169-.054,6.08,6.08,0,0,0,2.057-2.075c0-.254-.417-.309-.568-.073a5.374,5.374,0,0,1-1.573,1.422c-.055,0-.1.024-.1.06s-.072.06-.163.06a.521.521,0,0,0-.278.1c-.1.091-.249.109-1.15.109s-1.065-.018-1.191-.109a.711.711,0,0,0-.272-.109.787.787,0,0,1-.3-.115c-.1-.066-.273-.163-.375-.218a3.777,3.777,0,0,1-1.052-1.149.849.849,0,0,0-.176-.3.239.239,0,0,1-.061-.175.306.306,0,0,0-.06-.194,3.851,3.851,0,0,1-.254-1.4,8.98,8.98,0,0,1,.242-3.109.306.306,0,0,0,.072-.194,4.34,4.34,0,0,1,.575-1.174,4.294,4.294,0,0,1,.961-.847,2.7,2.7,0,0,1,1.707-.345,3.98,3.98,0,0,1,1,.067.712.712,0,0,0,.235.115,1.4,1.4,0,0,1,.345.188.829.829,0,0,0,.248.145,2.855,2.855,0,0,1,.738.762c0,.048.018.085.049.085.048,0,.09.073.272.466.061.127.151.309.2.4a.785.785,0,0,1,.084.236,1.437,1.437,0,0,0,.1.3c.09.206.126.236.29.218s.182-.03.2-.351a8.4,8.4,0,0,0-.054-1.059c-.037-.4-.091-1.065-.109-1.482l-.036-.756h-.272c-.218,0-.271.024-.291.115-.066.333-.49.46-.919.272a5.9,5.9,0,0,0-.877-.315A15.594,15.594,0,0,0,2389.889-389.681Z" transform="translate(-2060.049 -210.714)" fill="#fff"/>
    <path id="Path_6585" data-name="Path 6585" d="M2563.33-389.939a.312.312,0,0,1-.212.061.9.9,0,0,0-.345.085c-.091.048-.345.169-.562.278a3.87,3.87,0,0,0-.666.363c-.018.018-.151.127-.3.242a4.785,4.785,0,0,0-.968,1c0,.03-.03.073-.211.29a7.666,7.666,0,0,0-.484.98,6.183,6.183,0,0,0-.308,2.982,2.858,2.858,0,0,1,.1.575.406.406,0,0,0,.06.254c.036.018.061.1.061.181a.847.847,0,0,0,.084.315c.048.091.133.272.187.393a.794.794,0,0,0,.152.26.153.153,0,0,1,.061.127.29.29,0,0,0,.079.175c.169.194.224.272.224.321a6.69,6.69,0,0,0,1.536,1.4,1.492,1.492,0,0,1,.279.151.957.957,0,0,0,.351.151.469.469,0,0,1,.223.085,1.058,1.058,0,0,0,.3.115c.1.018.285.061.406.091a8.931,8.931,0,0,0,2.015.018,4.477,4.477,0,0,0,.908-.23c.066-.036.3-.151.514-.248a2.876,2.876,0,0,0,.526-.309.48.48,0,0,1,.182-.127,5.846,5.846,0,0,0,1.107-1.143c0-.03.042-.066.091-.091a.146.146,0,0,0,.091-.127c0-.048.018-.091.048-.091.049,0,.092-.073.273-.466.06-.127.151-.309.2-.4a.787.787,0,0,0,.084-.26.446.446,0,0,1,.06-.194,4.616,4.616,0,0,0,.224-1.785,6.6,6.6,0,0,0-.03-1.149,1.145,1.145,0,0,1-.1-.387.929.929,0,0,0-.1-.357.175.175,0,0,1-.055-.139,1.288,1.288,0,0,0-.151-.393,1.338,1.338,0,0,1-.151-.369.127.127,0,0,0-.042-.1,2.341,2.341,0,0,1-.284-.363,6.38,6.38,0,0,0-1.379-1.391c-.091-.042-.169-.1-.169-.121a5.131,5.131,0,0,0-.98-.5,1.093,1.093,0,0,0-.338-.1.218.218,0,0,1-.164-.061,5.688,5.688,0,0,0-1.21-.06A5.69,5.69,0,0,0,2563.33-389.939Zm1.815.665a1.636,1.636,0,0,1,.757.254c0,.03.036.048.079.048a3.3,3.3,0,0,1,1.131,1.331.3.3,0,0,0,.091.157.409.409,0,0,1,.09.236.254.254,0,0,0,.06.181c.036.018.061.127.061.236a.461.461,0,0,0,.067.26,11.636,11.636,0,0,1,0,4.3.684.684,0,0,0-.067.254.622.622,0,0,1-.054.236c-.024.054-.1.212-.163.345a3.358,3.358,0,0,1-1.6,1.561,3.325,3.325,0,0,1-1.591.169,3.776,3.776,0,0,1-.557-.127c-.066-.024-.163-.067-.212-.085a3.162,3.162,0,0,1-1.234-1.2c-.055-.109-.121-.242-.152-.29a1.658,1.658,0,0,1-.212-.532.477.477,0,0,0-.1-.224.467.467,0,0,1-.054-.266.554.554,0,0,0-.054-.278,11.219,11.219,0,0,1-.061-3.509c.036-.133.084-.351.109-.484a2.882,2.882,0,0,1,.127-.423c.042-.1.1-.248.133-.333a2.368,2.368,0,0,1,.115-.242c.03-.048.1-.181.152-.3a3.67,3.67,0,0,1,.961-.974c.049,0,.091-.024.091-.048,0-.067.351-.2.666-.254A5.584,5.584,0,0,1,2565.145-389.274Z" transform="translate(-2223.055 -210.449)" fill="#fff"/>
    <path id="Path_6586" data-name="Path 6586" d="M887.042-387.958c-.073.073-.042.369.036.4.049.018.3.067.557.109.442.079.484.1.647.321l.169.236v4.223c0,3.9-.006,4.241-.1,4.434a.89.89,0,0,1-.72.436c-.127.018-.327.048-.43.066-.182.03-.2.055-.2.236v.206l2.317-.012,2.311-.018.018-.2c.018-.169,0-.194-.121-.194a2.935,2.935,0,0,1-1.107-.333c-.212-.175-.272-.762-.272-2.728v-1.658H894.8v1.96c0,2.057-.018,2.232-.284,2.468a3,3,0,0,1-1.071.29c-.151,0-.163.018-.145.194l.018.2,2.347.018,2.341.012v-.212c0-.188-.018-.212-.151-.212a3.031,3.031,0,0,1-1.059-.309c-.3-.2-.309-.448-.284-4.743.012-2.166.048-4.035.079-4.156.073-.3.278-.436.75-.526.218-.042.454-.085.52-.1a.212.212,0,0,0,.145-.333c-.06-.109-.157-.115-2.3-.115-1.222,0-2.268.018-2.323.036a.226.226,0,0,0-.1.206c0,.145.03.175.2.212.72.139.877.188,1.01.29.3.224.3.254.3,2.311v1.936h-4.658v-1.585c0-.871.03-1.791.067-2.045.091-.587.206-.708.768-.811.738-.133.69-.109.665-.327l-.018-.194-2.274-.018C888.107-387.994,887.067-387.982,887.042-387.958Z" transform="translate(-652.016 -212.328)" fill="#fff"/>
    <path id="Path_6587" data-name="Path 6587" d="M1265.189-387.949a.19.19,0,0,0,.03.351,4.482,4.482,0,0,0,.557.127c.5.091.635.181.774.532.091.23.1.629.1,4.223a26.287,26.287,0,0,1-.1,4.277c-.127.4-.218.5-.5.563-.121.024-.266.054-.314.067s-.205.036-.345.054c-.278.042-.393.2-.26.363a8.632,8.632,0,0,0,2.384.073l2.3-.018v-.182c0-.157-.024-.182-.181-.2a4.726,4.726,0,0,1-.992-.272c-.079-.042-.157-.109-.169-.163s-.055-.145-.085-.212c-.072-.151-.036-8.4.036-8.651s.248-.369.726-.454c.7-.121.7-.115.7-.3a.226.226,0,0,0-.1-.206C1269.593-388.046,1265.3-388.015,1265.189-387.949Z" transform="translate(-1007.23 -212.313)" fill="#fff"/>
    <path id="Path_6588" data-name="Path 6588" d="M1414.109-387.886a.224.224,0,0,0-.109.175c0,.157.127.212.7.3a2.058,2.058,0,0,1,.569.139,1.337,1.337,0,0,1,.194.333c.109.248.115.5.115,4.386v4.126l-.139.242a.778.778,0,0,1-.653.424c-.811.133-.75.109-.75.3v.181h4.719l.018-.188c.018-.187.006-.194-.242-.224a2.654,2.654,0,0,1-.411-.067l-.3-.067c-.472-.091-.562-.508-.593-2.746l-.024-1.652.17.042a16.329,16.329,0,0,0,2.7.03.361.361,0,0,1,.206-.06,2.965,2.965,0,0,0,1.282-.811.715.715,0,0,1,.139-.181,1.977,1.977,0,0,0,.248-.381c.06-.127.133-.278.163-.333a3.9,3.9,0,0,0,.151-1.343,3.163,3.163,0,0,0-.278-1,1.777,1.777,0,0,1-.145-.206,3.492,3.492,0,0,0-1.881-1.325c-.1-.018-.291-.06-.423-.1C1419.214-387.971,1414.254-387.971,1414.109-387.886Zm4.537.665a2.964,2.964,0,0,1,.55.194c.26.127.732.611.732.75a.075.075,0,0,0,.061.079c.036,0,.06.061.06.139a.518.518,0,0,0,.091.26,4.224,4.224,0,0,1,0,1.785c-.048.1-.139.266-.194.369a2.366,2.366,0,0,1-.7.732,2.875,2.875,0,0,1-1.271.151,1.347,1.347,0,0,0-.423-.048h-.345l.012-2.184.018-2.184.3-.024a1.1,1.1,0,0,0,.327-.055A1.711,1.711,0,0,1,1418.646-387.221Z" transform="translate(-1147.135 -212.375)" fill="#fff"/>
    <path id="Path_6589" data-name="Path 6589" d="M1561.026-387.958c-.067.024-.115.381-.054.381a8.068,8.068,0,0,1,1.174.254c.321.163.315.091.315,4.652,0,4.356-.006,4.416-.242,4.658a2.888,2.888,0,0,1-1.089.3c-.176,0-.187.012-.169.194l.018.2,2.347.018,2.341.012v-.212c0-.188-.018-.212-.163-.212a3.025,3.025,0,0,1-1.04-.315c-.242-.169-.3-.732-.309-2.7v-1.706h4.658v2.021a15.3,15.3,0,0,1-.061,2.063.188.188,0,0,0-.061.139.316.316,0,0,1-.109.2,4.279,4.279,0,0,1-1.131.308c-.091.018-.121.067-.121.2v.181h4.719v-.181c0-.163-.024-.188-.242-.224a3.049,3.049,0,0,1-.986-.278c-.3-.23-.315-.5-.315-4.646a26.15,26.15,0,0,1,.1-4.186,1.051,1.051,0,0,1,.23-.442,1.65,1.65,0,0,1,.581-.175c.532-.091.666-.151.666-.29,0-.248-.06-.254-2.365-.254-1.222,0-2.263.018-2.317.036a.226.226,0,0,0-.1.206c0,.145.031.175.2.212.72.139.877.188,1.01.29.3.224.3.254.3,2.311v1.936h-4.658v-1.555c0-1.857.061-2.426.29-2.668a.5.5,0,0,1,.266-.163,1.921,1.921,0,0,0,.363-.06c.145-.03.339-.073.429-.091.151-.03.17-.06.151-.23l-.018-.194-2.269-.012C1562.121-387.988,1561.062-387.976,1561.026-387.958Z" transform="translate(-1285.19 -212.328)" fill="#fff"/>
    <path id="Path_6590" data-name="Path 6590" d="M1930.162-387.933a.234.234,0,0,0-.024.375,1.2,1.2,0,0,0,.49.127,1.952,1.952,0,0,1,1.44.956l.163.224-.018,3.557c-.012,1.954-.03,3.6-.036,3.648s-.024.248-.049.442c-.054.593-.218.714-1.155.865-.3.048-.339.1-.291.3l.036.145h1.906c1.857,0,1.906,0,1.966-.127.085-.151-.012-.3-.194-.3a4.324,4.324,0,0,1-1-.254c-.079-.036-.139-.1-.139-.151s-.024-.079-.061-.079-.066-1.246-.073-3.479c-.012-1.912,0-3.478.024-3.478a.942.942,0,0,1,.218.254,5.2,5.2,0,0,0,.32.417c.079.085.242.272.357.417l.321.387c.061.066.188.218.272.333.152.2.551.665.617.732.018.018.127.151.242.3a8.259,8.259,0,0,0,.624.738.7.7,0,0,1,.163.23.085.085,0,0,0,.048.073,2,2,0,0,1,.272.3c.127.157.26.321.3.363s.169.2.284.351.236.3.272.339.151.176.26.315.266.315.333.393a6.327,6.327,0,0,1,.466.563,3.807,3.807,0,0,0,.309.369c.115.127.291.339.387.466.4.526.647.762.817.762a.227.227,0,0,0,.206-.1c.018-.054.036-2.244.036-4.87,0-5.759-.085-5.275.932-5.457.623-.115.756-.218.544-.43-.079-.085-.339-.1-1.9-.1-.992,0-1.845.018-1.9.036a.227.227,0,0,0-.1.206c0,.188-.042.169.726.309a1.016,1.016,0,0,1,.514.2c.254.26.272.454.272,3.811,0,2.837-.012,3.188-.091,3.121a.26.26,0,0,1-.091-.133.29.29,0,0,0-.073-.133c-.042-.042-.175-.2-.291-.339s-.254-.3-.3-.357a3.862,3.862,0,0,1-.272-.339,3.525,3.525,0,0,0-.272-.333c-.049-.054-.163-.194-.254-.309s-.248-.3-.351-.417a5.548,5.548,0,0,1-.375-.454c-.1-.133-.266-.339-.369-.454s-.291-.333-.406-.484-.224-.284-.242-.3c-.042-.036-.629-.738-.907-1.089-.115-.145-.236-.29-.272-.327s-.224-.272-.423-.52-.387-.484-.424-.52-.157-.181-.272-.327-.242-.29-.272-.327-.139-.169-.236-.3l-.169-.224h-1.374A8.745,8.745,0,0,0,1930.162-387.933Z" transform="translate(-1631.973 -212.328)" fill="#fff"/>
    <path id="Path_6591" data-name="Path 6591" d="M2741.587-387.915c-.109.115-.066.387.073.423a3.6,3.6,0,0,0,.5.066c.333.036.43.073.569.218.327.345.327.309.327,4.634,0,3.769-.006,4.017-.115,4.265a1.151,1.151,0,0,1-.193.327,2.609,2.609,0,0,1-.974.248c-.236.03-.327.182-.206.351.061.079.3.091,1.972.079l1.905-.018.018-.2c.019-.181.006-.194-.163-.194a2.874,2.874,0,0,1-1.089-.284c-.236-.242-.248-.405-.248-4.132,0-3.23.012-3.581.09-3.424a.778.778,0,0,1,.091.278.277.277,0,0,0,.091.181.267.267,0,0,1,.09.157,1.151,1.151,0,0,0,.194.448c.024.048.066.133.085.181a4.155,4.155,0,0,0,.211.484,1.211,1.211,0,0,1,.091.182c.055.133.29.653.472,1.028a1.788,1.788,0,0,1,.157.442c0,.054.024.1.055.1s.073.06.1.133a4.257,4.257,0,0,0,.176.442c.078.163.211.466.3.665s.194.405.224.454a1.262,1.262,0,0,1,.091.181c.091.236.146.357.3.7.091.2.188.405.218.454a1.255,1.255,0,0,1,.09.181,4.2,4.2,0,0,0,.212.484,1.256,1.256,0,0,1,.09.182c.018.048.1.224.175.393s.152.351.176.405c.024.079.1.109.278.109s.254-.03.278-.109c.036-.1.151-.369.472-1.059.084-.187.23-.5.314-.7s.182-.387.212-.436a1.256,1.256,0,0,0,.09-.181,4.049,4.049,0,0,1,.212-.484,1.258,1.258,0,0,0,.09-.181c.019-.048.1-.23.182-.393a1.807,1.807,0,0,0,.146-.381.292.292,0,0,1,.091-.169.371.371,0,0,0,.09-.212c0-.06.03-.115.061-.115s.06-.042.06-.091a1.8,1.8,0,0,1,.14-.381c.079-.157.188-.381.236-.5s.164-.369.254-.563c.235-.514.43-.938.61-1.343.091-.2.188-.405.218-.454a2.74,2.74,0,0,0,.206-.484c.073-.181.084.3.084,3.412.006,3.267-.006,3.648-.1,3.854a.776.776,0,0,1-.678.436.693.693,0,0,0-.229.061.552.552,0,0,1-.267.042c-.175,0-.235.03-.266.121-.1.3-.061.3,2.426.3h2.323v-.212c0-.188-.019-.212-.157-.212a2.468,2.468,0,0,1-1.1-.327c-.225-.254-.254-.768-.254-4.67.006-4.047.024-4.319.314-4.555a1.362,1.362,0,0,1,.532-.188c.714-.121.678-.1.653-.321l-.018-.194-1.555-.018-1.555-.012-.187.405c-.109.23-.218.454-.248.5a1.311,1.311,0,0,0-.091.181c-.018.048-.06.145-.084.212a1.8,1.8,0,0,0-.091.254c-.024.079-.066.139-.1.139s-.054.042-.054.085a1.371,1.371,0,0,1-.151.375,1.317,1.317,0,0,0-.151.387.277.277,0,0,1-.091.182.252.252,0,0,0-.091.157,1.419,1.419,0,0,1-.151.363,1.4,1.4,0,0,0-.152.363c0,.048-.024.085-.06.085s-.061.042-.061.1a.657.657,0,0,1-.085.254c-.042.091-.115.242-.157.345s-.1.224-.127.272a1.258,1.258,0,0,0-.091.181c-.066.163-.339.75-.423.92a.654.654,0,0,0-.084.254c0,.054-.024.1-.061.1s-.06.042-.06.1a.649.649,0,0,1-.085.254c-.048.091-.139.278-.194.417s-.126.26-.157.26-.048.036-.048.079a2.2,2.2,0,0,1-.249.6.557.557,0,0,0-.054.212c0,.091-.012.085-.09-.018a.474.474,0,0,1-.091-.242.311.311,0,0,0-.091-.206.255.255,0,0,1-.091-.151,1.682,1.682,0,0,0-.146-.375c-.157-.315-.393-.823-.629-1.349-.079-.181-.169-.375-.2-.423a1.259,1.259,0,0,1-.091-.181c-.03-.085-.109-.254-.484-1.077-.09-.188-.229-.5-.314-.678s-.169-.375-.2-.423a1.259,1.259,0,0,1-.091-.181,4.063,4.063,0,0,0-.211-.484,1.263,1.263,0,0,1-.091-.182c-.066-.175-.339-.756-.394-.847a1.311,1.311,0,0,1-.091-.181,4.741,4.741,0,0,0-.441-.926c-.079-.091-.229-.1-1.585-.1C2741.95-388,2741.66-387.982,2741.587-387.915Z" transform="translate(-2394.343 -212.328)" fill="#fff"/>
    <path id="Path_6592" data-name="Path 6592" d="M2975.128-387.975a.209.209,0,0,0,.036.339,3.226,3.226,0,0,0,.586.133,2.234,2.234,0,0,1,.563.133,1.325,1.325,0,0,1,.194.339c.115.26.121.411.121,4.35,0,3.7-.012,4.1-.1,4.3a1.248,1.248,0,0,1-.2.321c-.139.139-.218.163-.968.284-.254.036-.272.054-.272.224v.182h4.719l.018-.188c.018-.187.006-.194-.242-.224a5.72,5.72,0,0,1-.707-.127c-.472-.109-.563-.514-.594-2.753l-.024-1.652.169.042a16.347,16.347,0,0,0,2.7.03.361.361,0,0,1,.206-.061,2.85,2.85,0,0,0,1.282-.829.156.156,0,0,1,.085-.121,2.7,2.7,0,0,0,.617-1.543,3,3,0,0,0-.169-1.234.285.285,0,0,1-.048-.182c0-.079-.025-.145-.055-.145s-.073-.048-.091-.109a4.069,4.069,0,0,0-.883-.926,3.71,3.71,0,0,0-1.059-.5c-.1-.018-.29-.06-.423-.1A51.271,51.271,0,0,0,2975.128-387.975Zm4.573.659a3.593,3.593,0,0,1,.491.157,2.116,2.116,0,0,1,.823.841c.055.127.139.327.188.436a4.379,4.379,0,0,1-.006,1.773c-.048.1-.139.266-.194.369a2.336,2.336,0,0,1-.7.732,3.09,3.09,0,0,1-1.276.151,1.348,1.348,0,0,0-.423-.048h-.345l.013-2.184.018-2.184.3-.024a1.111,1.111,0,0,0,.326-.054A1.707,1.707,0,0,1,2979.7-387.316Z" transform="translate(-2613.758 -212.28)" fill="#fff"/>
    <path id="Path_6593" data-name="Path 6593" d="M3116.192-387.933a.19.19,0,0,0,.03.351,4.537,4.537,0,0,0,.587.127c.841.139.8-.024.853,4.023.03,3.236.073,3.878.242,4.053a.324.324,0,0,1,.054.194c0,.079.024.139.048.139s.1.1.151.23a3.428,3.428,0,0,0,1.4,1.307c.133.054.29.127.345.157a.629.629,0,0,0,.278.061.467.467,0,0,1,.248.073,4.428,4.428,0,0,0,1.4.079,4.431,4.431,0,0,0,1.4-.079.421.421,0,0,1,.236-.073,2.887,2.887,0,0,0,1.065-.514,4.385,4.385,0,0,0,.956-1.022.762.762,0,0,1,.157-.248c.036-.018.06-.1.06-.188a.679.679,0,0,1,.055-.254c.176-.345.212-.859.248-3.975.018-1.766.061-3.279.084-3.37a.91.91,0,0,1,.775-.587c.574-.109.677-.151.7-.266.055-.272-.012-.284-1.954-.284-1.01,0-1.875.018-1.929.036a.231.231,0,0,0-.1.212c0,.151.024.175.23.206a3.873,3.873,0,0,1,1.016.254c.26.163.272.345.248,3.8-.019,3.182-.061,3.884-.23,4.047a.249.249,0,0,0-.055.145,2.489,2.489,0,0,1-.889.98c-.043,0-.079.024-.079.048,0,.042-.181.133-.544.272a4.872,4.872,0,0,1-.484.115,3.139,3.139,0,0,1-2.226-.242c-.266-.127-.8-.665-.8-.8,0-.067-.024-.115-.061-.115s-.06-.073-.06-.157a1.155,1.155,0,0,0-.084-.345c-.133-.3-.164-.8-.194-3.914s-.012-3.466.26-3.763a.886.886,0,0,1,.55-.23c.726-.121.69-.1.666-.321l-.018-.194-2.269-.012A18.231,18.231,0,0,0,3116.192-387.933Z" transform="translate(-2746.256 -212.328)" fill="#fff"/>
    <path id="Path_6594" data-name="Path 6594" d="M3314.217-387.9c-.079.085-.091.26-.079,1.222l.018,1.131h.424l.1-.424a1.551,1.551,0,0,1,.459-.98.962.962,0,0,1,.623-.309,4.277,4.277,0,0,1,.544-.079c.085,0,.43-.012.774-.03l.617-.036v4.483c0,4.059-.012,4.5-.1,4.688a.8.8,0,0,1-.678.417.689.689,0,0,0-.229.061.457.457,0,0,1-.236.042c-.145,0-.205.03-.236.121-.1.3-.06.3,2.4.3h2.293v-.206c0-.2-.006-.206-.314-.242a1.98,1.98,0,0,1-.968-.327,1.026,1.026,0,0,1-.133-.442c-.018-.181-.036-2.25-.036-4.6v-4.259h.768c1.1.006,1.627.157,1.948.569a.893.893,0,0,1,.188.321.245.245,0,0,0,.06.145,1.014,1.014,0,0,1,.1.375c.042.357.121.454.363.424l.169-.018-.012-1.1a5.893,5.893,0,0,0-.079-1.222c-.067-.127-.091-.127-4.356-.127C3314.76-388,3314.307-387.988,3314.217-387.9Z" transform="translate(-2932.32 -212.328)" fill="#fff"/>
    <path id="Path_6595" data-name="Path 6595" d="M3470.073-387.927a.227.227,0,0,0,.006.333,2.409,2.409,0,0,0,.557.133c.4.061.514.1.641.242.145.157.157.218.193,1,.055,1.041.042,6.558-.012,7.393-.036.587-.042.623-.218.768a1.52,1.52,0,0,1-.635.254c-.605.127-.605.127-.605.248.006.266-.115.26,4.2.248l4.1-.018.055-.181c.03-.1.079-.236.1-.3a3.722,3.722,0,0,0,.23-.714.382.382,0,0,1,.084-.2.223.223,0,0,0,.055-.169.527.527,0,0,1,.09-.254.453.453,0,0,0,.092-.242.308.308,0,0,1,.066-.188c.1-.1.042-.466-.085-.49-.2-.042-.405.042-.405.163a.29.29,0,0,1-.091.188.269.269,0,0,0-.091.157c0,.048-.023.085-.054.085s-.072.048-.091.1a2.97,2.97,0,0,1-.919,1.107,1.62,1.62,0,0,0-.266.157,12.6,12.6,0,0,1-3.3.151c-.539-.073-.508.054-.508-2.42v-2.184h.956c.521,0,1.2.03,1.494.067.816.1,1.053.327,1.149,1.107l.042.339h.532l-.012-1.833-.018-1.827-.169-.018c-.242-.03-.327.067-.375.442-.073.6-.3.877-.787,1a14.331,14.331,0,0,1-1.554.1l-1.258.03V-387.4l1.409.03c.768.012,1.47.024,1.554.03a3.267,3.267,0,0,1,.932.212.853.853,0,0,1,.393.429c.042.1.114.26.163.351a1.035,1.035,0,0,1,.085.393c.006.3.12.436.35.436.261,0,.278-.1.224-1.307-.031-.75-.066-1.016-.133-1.083s-.659-.091-4.1-.091A36.2,36.2,0,0,0,3470.073-387.927Z" transform="translate(-3078.758 -212.328)" fill="#fff"/>
    <path id="Path_6596" data-name="Path 6596" d="M3628.14-387.921a.2.2,0,0,0,.061.351,4.185,4.185,0,0,0,.575.133c.4.067.466.1.6.284l.163.212.019,4.241c.012,3.962.006,4.253-.091,4.465a.855.855,0,0,1-.72.448c-.127.018-.321.048-.43.066-.206.03-.291.169-.224.345.036.091.248.1,2.347.085l2.3-.018.019-.188c.018-.187.012-.194-.272-.23-.157-.018-.333-.042-.381-.054s-.176-.042-.284-.073a.774.774,0,0,1-.333-.194l-.14-.151v-3.95l.363-.018c.357-.018.635.067.635.194a.585.585,0,0,0,.151.23.8.8,0,0,1,.151.2,7.2,7.2,0,0,0,.738.986.132.132,0,0,1,.048.109c0,.048.024.085.055.085s.072.048.091.1a1.191,1.191,0,0,0,.188.29c.079.1.169.206.2.242a.948.948,0,0,1,.091.163c.018.06.066.109.1.109s.06.042.06.091.03.091.061.091.061.036.061.079a.555.555,0,0,0,.151.236.7.7,0,0,1,.151.206,2.669,2.669,0,0,0,.436.557.088.088,0,0,1,.048.079,2.542,2.542,0,0,0,.284.448l.284.393,1.512-.012,1.519-.018.018-.151c.024-.23-.054-.3-.447-.369a2.464,2.464,0,0,1-.46-.121.546.546,0,0,0-.2-.055,2.966,2.966,0,0,1-1.028-.8c-.133-.163-.314-.387-.405-.49a.711.711,0,0,1-.169-.26.1.1,0,0,0-.048-.091,2.668,2.668,0,0,1-.436-.557.7.7,0,0,0-.151-.206.62.62,0,0,1-.151-.212.684.684,0,0,0-.151-.212.679.679,0,0,1-.151-.212.291.291,0,0,0-.073-.133c-.181-.2-.229-.272-.229-.333a.055.055,0,0,0-.049-.06c-.024,0-.1-.091-.157-.206a.67.67,0,0,0-.193-.242.121.121,0,0,1-.084-.1.591.591,0,0,0-.151-.23c-.175-.188-.187-.254-.048-.254a4.2,4.2,0,0,0,1.452-.623,2.208,2.208,0,0,0,.72-.823,2.089,2.089,0,0,1,.151-.248.619.619,0,0,0,.073-.212c.018-.1.066-.309.109-.472a.939.939,0,0,0,0-.575c-.042-.157-.091-.369-.109-.466a.569.569,0,0,0-.073-.212,1.539,1.539,0,0,1-.151-.26,3.175,3.175,0,0,0-1.821-1.313.416.416,0,0,1-.26-.079A53.7,53.7,0,0,0,3628.14-387.921Zm4.791.672a1.036,1.036,0,0,1,.394.121c0,.03.048.048.109.048a1.533,1.533,0,0,1,.617.538.062.062,0,0,0,.055.067c.084,0,.23.321.278.6a.664.664,0,0,0,.1.278,1.624,1.624,0,0,1,0,.835.555.555,0,0,0-.1.254,1.947,1.947,0,0,1-.8,1.119,1.216,1.216,0,0,0-.242.188.223.223,0,0,1-.163.048.845.845,0,0,0-.314.085,5.64,5.64,0,0,1-1.385.218h-.176l.012-2.1.019-2.1.132-.061a4.354,4.354,0,0,1,.914-.212A4.682,4.682,0,0,1,3632.931-387.25Z" transform="translate(-3227.261 -212.34)" fill="#fff"/>
    <path id="Path_6597" data-name="Path 6597" d="M193-312.286c0,.048,17.87,17.907,17.925,17.907.024,0,.042-.907.042-2.014V-298.4l-6.939-6.939-6.945-6.945-2.045-.012C193.92-312.31,193-312.3,193-312.286Z" transform="translate(0 -283.445)" fill="#fff"/>
    <path id="Path_6598" data-name="Path 6598" d="M510.533-312.341l-2.027.012-6.915,6.915-6.915,6.915-.012,2.039c-.006,1.119,0,2.039.018,2.039.048,0,17.937-17.9,17.906-17.919S511.646-312.353,510.533-312.341Z" transform="translate(-283.413 -283.402)" fill="#fff"/>
  </g>
</svg>
